M48
;GenerationSoftware,Autodesk,EAGLE,9.5.2*%
;CreationDate,2021-11-06T21:33:41Z*%
FMAT,2
ICI,OFF
METRIC,TZ,000.000
T6C0.381
T5C0.508
T4C0.900
T3C1.016
T2C2.540
T1C4.064
%
G90
M71
T1
X-30480Y101600
X-30480Y10160
X-30480Y40640
X-30480Y71120
X40640Y101600
X-5080Y96520
T2
X-15367Y35433
X-15367Y96393
T3
X-25400Y81280
X-25400Y74930
X-25400Y67310
X-7620Y81280
X-10160Y81280
X-10160Y60960
X46990Y66040
X46990Y76200
X29210Y76200
X29210Y66040
X-25400Y91440
X-25400Y111760
X-25400Y105410
X-25400Y97790
X-10160Y111760
X-10160Y91440
X35560Y91440
X35560Y111760
X35560Y105410
X35560Y97790
X-7620Y111760
X-25400Y60960
X-25400Y36830
X46990Y35560
X46990Y45720
X20320Y91440
X29210Y45720
X29210Y35560
X17780Y111760
X20320Y111760
X-10160Y0
X-25400Y6350
X-25400Y13970
X-25400Y20320
X-25400Y0
X29210Y5080
X29210Y15240
X46990Y5080
X46990Y15240
X-7620Y20320
X-10160Y20320
X-10160Y30480
X-7620Y50800
X-10160Y50800
X-25400Y30480
X-25400Y50800
X-25400Y44450
T4
X-1600Y21290
X1400Y21290
T5
X-22860Y27940
X-10160Y22860
X-8890Y22860
X-11430Y22860
X-12700Y22860
X-7620Y22860
X-10160Y27940
X-8890Y27940
X-11430Y27940
X-12700Y27940
X-7620Y27940
X20320Y22860
X21590Y22860
X19050Y22860
X17780Y22860
X22860Y22860
X20320Y27940
X21590Y27940
X17780Y27940
X22860Y27940
X55880Y22860
X57150Y22860
X54610Y22860
X53340Y22860
X58420Y22860
X55880Y27940
X57150Y27940
X54610Y27940
X53340Y27940
X58420Y27940
X19050Y88900
X-6350Y2540
X-6350Y0
X-3810Y2540
X-3810Y0
X-1270Y2540
X-1270Y0
X19050Y27940
X-25400Y88900
X-24130Y88900
X-26670Y88900
X-27940Y88900
X-22860Y88900
X-10160Y88900
X-8890Y88900
X-11430Y88900
X-12700Y88900
X-7620Y88900
X-25400Y83820
X-24130Y83820
X-26670Y83820
X-27940Y83820
X-22860Y83820
X-10160Y83820
X-8890Y83820
X-11430Y83820
X-12700Y83820
X-7620Y83820
X20320Y83820
X21590Y83820
X19050Y83820
X17780Y83820
X22860Y83820
X38100Y83820
X39370Y83820
X36830Y83820
X35560Y83820
X40640Y83820
X20320Y88900
X21590Y88900
X57150Y53340
X17780Y88900
X22860Y88900
X38100Y88900
X39370Y88900
X36830Y88900
X35560Y88900
X40640Y88900
X7620Y101600
X7620Y102870
X7620Y100330
X7620Y99060
X7620Y104140
X2540Y101600
X2540Y102870
X2540Y100330
X2540Y99060
X2540Y104140
X-25400Y53340
X-24130Y53340
X-26670Y53340
X-27940Y53340
X-22860Y53340
X-25400Y58420
X-24130Y58420
X-26670Y58420
X-27940Y58420
X-22860Y58420
X-10160Y58420
X-8890Y58420
X-11430Y58420
X-12700Y58420
X-7620Y58420
X-10160Y53340
X-8890Y53340
X-11430Y53340
X-12700Y53340
X-7620Y53340
X20320Y58420
X21590Y58420
X19050Y58420
X17780Y58420
X22860Y58420
X38100Y58420
X39370Y58420
X36830Y58420
X35560Y58420
X40640Y58420
X55880Y58420
X57150Y58420
X54610Y58420
X53340Y58420
X58420Y58420
X20320Y53340
X21590Y53340
X19050Y53340
X17780Y53340
X22860Y53340
X38100Y53340
X39370Y53340
X36830Y53340
X35560Y53340
X40640Y53340
X55880Y53340
X54610Y53340
X53340Y53340
X58420Y53340
X-25400Y22860
X-24130Y22860
X-26670Y22860
X-27940Y22860
X-22860Y22860
X-25400Y27940
X-24130Y27940
X-26670Y27940
X-27940Y27940
T6
X-8890Y7620
X-8890Y2921
X2413Y10160
X-762Y4572
X0Y3810
X0Y17780
X-7620Y10414
X-2540Y17780
X1143Y13208
X21590Y19050
X21590Y8890
X21590Y1270
X16510Y16510
X24130Y16510
X24130Y6350
X16510Y6350
X21590Y11430
X11430Y5080
X39370Y19050
X39370Y8890
X39370Y1270
X41910Y6350
X34290Y6350
X34290Y16510
X41910Y16510
X39370Y11430
X11430Y1270
X57150Y19050
X57150Y8890
X57150Y1270
X59690Y6350
X52070Y16510
X59690Y16510
X57150Y11430
X11430Y8890
X-1016Y7366
X5080Y15240
X-10160Y7620
X-12713Y8890
X63500Y-1270
X-11938Y10160
X62230Y0
X-6350Y13970
X-6350Y5080
X-5080Y15240
X-3810Y13970
X5080Y12700
X-2032Y5207
X5080Y13970
X-2032Y6350
X52070Y6350
M30