G04 EAGLE Gerber RS-274X export*
G75*
%MOMM*%
%FSLAX34Y34*%
%LPD*%
%INSolderpaste Top*%
%IPPOS*%
%AMOC8*
5,1,8,0,0,1.08239X$1,22.5*%
G01*
%ADD10R,1.524000X0.762000*%
%ADD11R,0.700000X1.500000*%
%ADD12R,1.000000X0.600000*%
%ADD13R,1.000000X0.800000*%
%ADD14C,0.300000*%
%ADD15R,0.900000X0.800000*%
%ADD16R,1.100000X1.000000*%
%ADD17R,1.000000X1.100000*%
%ADD18R,0.914400X0.254000*%
%ADD19R,0.254000X0.914400*%


D10*
X734060Y184150D03*
X789940Y184150D03*
X734060Y146050D03*
X789940Y146050D03*
X734060Y57150D03*
X789940Y57150D03*
X734060Y19050D03*
X789940Y19050D03*
D11*
X-23500Y195400D03*
X-8500Y195400D03*
X21500Y195400D03*
D12*
X-37500Y222900D03*
D13*
X-37500Y201900D03*
D12*
X35500Y222900D03*
D13*
X35500Y201900D03*
D14*
X148900Y157670D02*
X155900Y157670D01*
X148900Y157670D02*
X148900Y164670D01*
X155900Y164670D01*
X155900Y157670D01*
X155900Y160520D02*
X148900Y160520D01*
X148900Y163370D02*
X155900Y163370D01*
X155900Y140130D02*
X148900Y140130D01*
X148900Y147130D01*
X155900Y147130D01*
X155900Y140130D01*
X155900Y142980D02*
X148900Y142980D01*
X148900Y145830D02*
X155900Y145830D01*
X250500Y157670D02*
X257500Y157670D01*
X250500Y157670D02*
X250500Y164670D01*
X257500Y164670D01*
X257500Y157670D01*
X257500Y160520D02*
X250500Y160520D01*
X250500Y163370D02*
X257500Y163370D01*
X257500Y140130D02*
X250500Y140130D01*
X250500Y147130D01*
X257500Y147130D01*
X257500Y140130D01*
X257500Y142980D02*
X250500Y142980D01*
X250500Y145830D02*
X257500Y145830D01*
X155900Y56070D02*
X148900Y56070D01*
X148900Y63070D01*
X155900Y63070D01*
X155900Y56070D01*
X155900Y58920D02*
X148900Y58920D01*
X148900Y61770D02*
X155900Y61770D01*
X155900Y38530D02*
X148900Y38530D01*
X148900Y45530D01*
X155900Y45530D01*
X155900Y38530D01*
X155900Y41380D02*
X148900Y41380D01*
X148900Y44230D02*
X155900Y44230D01*
X250500Y56070D02*
X257500Y56070D01*
X250500Y56070D02*
X250500Y63070D01*
X257500Y63070D01*
X257500Y56070D01*
X257500Y58920D02*
X250500Y58920D01*
X250500Y61770D02*
X257500Y61770D01*
X257500Y38530D02*
X250500Y38530D01*
X250500Y45530D01*
X257500Y45530D01*
X257500Y38530D01*
X257500Y41380D02*
X250500Y41380D01*
X250500Y44230D02*
X257500Y44230D01*
X208470Y199700D02*
X208470Y206700D01*
X215470Y206700D01*
X215470Y199700D01*
X208470Y199700D01*
X208470Y202550D02*
X215470Y202550D01*
X215470Y205400D02*
X208470Y205400D01*
X190930Y206700D02*
X190930Y199700D01*
X190930Y206700D02*
X197930Y206700D01*
X197930Y199700D01*
X190930Y199700D01*
X190930Y202550D02*
X197930Y202550D01*
X197930Y205400D02*
X190930Y205400D01*
X208470Y105100D02*
X208470Y98100D01*
X208470Y105100D02*
X215470Y105100D01*
X215470Y98100D01*
X208470Y98100D01*
X208470Y100950D02*
X215470Y100950D01*
X215470Y103800D02*
X208470Y103800D01*
X190930Y105100D02*
X190930Y98100D01*
X190930Y105100D02*
X197930Y105100D01*
X197930Y98100D01*
X190930Y98100D01*
X190930Y100950D02*
X197930Y100950D01*
X197930Y103800D02*
X190930Y103800D01*
X208470Y3500D02*
X208470Y-3500D01*
X208470Y3500D02*
X215470Y3500D01*
X215470Y-3500D01*
X208470Y-3500D01*
X208470Y-650D02*
X215470Y-650D01*
X215470Y2200D02*
X208470Y2200D01*
X190930Y3500D02*
X190930Y-3500D01*
X190930Y3500D02*
X197930Y3500D01*
X197930Y-3500D01*
X190930Y-3500D01*
X190930Y-650D02*
X197930Y-650D01*
X197930Y2200D02*
X190930Y2200D01*
X-150000Y55470D02*
X-157000Y55470D01*
X-157000Y62470D01*
X-150000Y62470D01*
X-150000Y55470D01*
X-150000Y58320D02*
X-157000Y58320D01*
X-157000Y61170D02*
X-150000Y61170D01*
X-150000Y37930D02*
X-157000Y37930D01*
X-157000Y44930D01*
X-150000Y44930D01*
X-150000Y37930D01*
X-150000Y40780D02*
X-157000Y40780D01*
X-157000Y43630D02*
X-150000Y43630D01*
X326700Y157670D02*
X333700Y157670D01*
X326700Y157670D02*
X326700Y164670D01*
X333700Y164670D01*
X333700Y157670D01*
X333700Y160520D02*
X326700Y160520D01*
X326700Y163370D02*
X333700Y163370D01*
X333700Y140130D02*
X326700Y140130D01*
X326700Y147130D01*
X333700Y147130D01*
X333700Y140130D01*
X333700Y142980D02*
X326700Y142980D01*
X326700Y145830D02*
X333700Y145830D01*
X428300Y157670D02*
X435300Y157670D01*
X428300Y157670D02*
X428300Y164670D01*
X435300Y164670D01*
X435300Y157670D01*
X435300Y160520D02*
X428300Y160520D01*
X428300Y163370D02*
X435300Y163370D01*
X435300Y140130D02*
X428300Y140130D01*
X428300Y147130D01*
X435300Y147130D01*
X435300Y140130D01*
X435300Y142980D02*
X428300Y142980D01*
X428300Y145830D02*
X435300Y145830D01*
X333700Y56070D02*
X326700Y56070D01*
X326700Y63070D01*
X333700Y63070D01*
X333700Y56070D01*
X333700Y58920D02*
X326700Y58920D01*
X326700Y61770D02*
X333700Y61770D01*
X333700Y38530D02*
X326700Y38530D01*
X326700Y45530D01*
X333700Y45530D01*
X333700Y38530D01*
X333700Y41380D02*
X326700Y41380D01*
X326700Y44230D02*
X333700Y44230D01*
X428300Y56070D02*
X435300Y56070D01*
X428300Y56070D02*
X428300Y63070D01*
X435300Y63070D01*
X435300Y56070D01*
X435300Y58920D02*
X428300Y58920D01*
X428300Y61770D02*
X435300Y61770D01*
X435300Y38530D02*
X428300Y38530D01*
X428300Y45530D01*
X435300Y45530D01*
X435300Y38530D01*
X435300Y41380D02*
X428300Y41380D01*
X428300Y44230D02*
X435300Y44230D01*
X386270Y199700D02*
X386270Y206700D01*
X393270Y206700D01*
X393270Y199700D01*
X386270Y199700D01*
X386270Y202550D02*
X393270Y202550D01*
X393270Y205400D02*
X386270Y205400D01*
X368730Y206700D02*
X368730Y199700D01*
X368730Y206700D02*
X375730Y206700D01*
X375730Y199700D01*
X368730Y199700D01*
X368730Y202550D02*
X375730Y202550D01*
X375730Y205400D02*
X368730Y205400D01*
X386270Y105100D02*
X386270Y98100D01*
X386270Y105100D02*
X393270Y105100D01*
X393270Y98100D01*
X386270Y98100D01*
X386270Y100950D02*
X393270Y100950D01*
X393270Y103800D02*
X386270Y103800D01*
X368730Y105100D02*
X368730Y98100D01*
X368730Y105100D02*
X375730Y105100D01*
X375730Y98100D01*
X368730Y98100D01*
X368730Y100950D02*
X375730Y100950D01*
X375730Y103800D02*
X368730Y103800D01*
X386270Y3500D02*
X386270Y-3500D01*
X386270Y3500D02*
X393270Y3500D01*
X393270Y-3500D01*
X386270Y-3500D01*
X386270Y-650D02*
X393270Y-650D01*
X393270Y2200D02*
X386270Y2200D01*
X368730Y3500D02*
X368730Y-3500D01*
X368730Y3500D02*
X375730Y3500D01*
X375730Y-3500D01*
X368730Y-3500D01*
X368730Y-650D02*
X375730Y-650D01*
X375730Y2200D02*
X368730Y2200D01*
X504500Y157670D02*
X511500Y157670D01*
X504500Y157670D02*
X504500Y164670D01*
X511500Y164670D01*
X511500Y157670D01*
X511500Y160520D02*
X504500Y160520D01*
X504500Y163370D02*
X511500Y163370D01*
X511500Y140130D02*
X504500Y140130D01*
X504500Y147130D01*
X511500Y147130D01*
X511500Y140130D01*
X511500Y142980D02*
X504500Y142980D01*
X504500Y145830D02*
X511500Y145830D01*
X606100Y157670D02*
X613100Y157670D01*
X606100Y157670D02*
X606100Y164670D01*
X613100Y164670D01*
X613100Y157670D01*
X613100Y160520D02*
X606100Y160520D01*
X606100Y163370D02*
X613100Y163370D01*
X613100Y140130D02*
X606100Y140130D01*
X606100Y147130D01*
X613100Y147130D01*
X613100Y140130D01*
X613100Y142980D02*
X606100Y142980D01*
X606100Y145830D02*
X613100Y145830D01*
X511500Y56070D02*
X504500Y56070D01*
X504500Y63070D01*
X511500Y63070D01*
X511500Y56070D01*
X511500Y58920D02*
X504500Y58920D01*
X504500Y61770D02*
X511500Y61770D01*
X511500Y38530D02*
X504500Y38530D01*
X504500Y45530D01*
X511500Y45530D01*
X511500Y38530D01*
X511500Y41380D02*
X504500Y41380D01*
X504500Y44230D02*
X511500Y44230D01*
X606100Y56070D02*
X613100Y56070D01*
X606100Y56070D02*
X606100Y63070D01*
X613100Y63070D01*
X613100Y56070D01*
X613100Y58920D02*
X606100Y58920D01*
X606100Y61770D02*
X613100Y61770D01*
X613100Y38530D02*
X606100Y38530D01*
X606100Y45530D01*
X613100Y45530D01*
X613100Y38530D01*
X613100Y41380D02*
X606100Y41380D01*
X606100Y44230D02*
X613100Y44230D01*
X564070Y199700D02*
X564070Y206700D01*
X571070Y206700D01*
X571070Y199700D01*
X564070Y199700D01*
X564070Y202550D02*
X571070Y202550D01*
X571070Y205400D02*
X564070Y205400D01*
X546530Y206700D02*
X546530Y199700D01*
X546530Y206700D02*
X553530Y206700D01*
X553530Y199700D01*
X546530Y199700D01*
X546530Y202550D02*
X553530Y202550D01*
X553530Y205400D02*
X546530Y205400D01*
X564070Y105100D02*
X564070Y98100D01*
X564070Y105100D02*
X571070Y105100D01*
X571070Y98100D01*
X564070Y98100D01*
X564070Y100950D02*
X571070Y100950D01*
X571070Y103800D02*
X564070Y103800D01*
X546530Y105100D02*
X546530Y98100D01*
X546530Y105100D02*
X553530Y105100D01*
X553530Y98100D01*
X546530Y98100D01*
X546530Y100950D02*
X553530Y100950D01*
X553530Y103800D02*
X546530Y103800D01*
X564070Y3500D02*
X564070Y-3500D01*
X564070Y3500D02*
X571070Y3500D01*
X571070Y-3500D01*
X564070Y-3500D01*
X564070Y-650D02*
X571070Y-650D01*
X571070Y2200D02*
X564070Y2200D01*
X546530Y3500D02*
X546530Y-3500D01*
X546530Y3500D02*
X553530Y3500D01*
X553530Y-3500D01*
X546530Y-3500D01*
X546530Y-650D02*
X553530Y-650D01*
X553530Y2200D02*
X546530Y2200D01*
D15*
X78900Y60300D03*
X78900Y41300D03*
X99900Y50800D03*
X78900Y22200D03*
X78900Y3200D03*
X99900Y12700D03*
X78900Y98400D03*
X78900Y79400D03*
X99900Y88900D03*
D16*
X67700Y203200D03*
X84700Y203200D03*
X67700Y190500D03*
X84700Y190500D03*
X67700Y177800D03*
X84700Y177800D03*
X67700Y165100D03*
X84700Y165100D03*
X67700Y152400D03*
X84700Y152400D03*
X67700Y139700D03*
X84700Y139700D03*
X67700Y127000D03*
X84700Y127000D03*
D17*
X63500Y42300D03*
X63500Y59300D03*
X63500Y4200D03*
X63500Y21200D03*
X63500Y80400D03*
X63500Y97400D03*
X-101600Y59300D03*
X-101600Y42300D03*
X-88900Y42300D03*
X-88900Y59300D03*
D18*
X-62103Y119100D03*
X-62103Y114100D03*
X-62103Y109100D03*
X-62103Y104100D03*
X-62103Y99100D03*
X-62103Y94100D03*
X-62103Y89100D03*
X-62103Y84100D03*
D19*
X-55600Y77597D03*
X-50600Y77597D03*
X-45600Y77597D03*
X-40600Y77597D03*
X-35600Y77597D03*
X-30600Y77597D03*
X-25600Y77597D03*
X-20600Y77597D03*
D18*
X-14097Y84100D03*
X-14097Y89100D03*
X-14097Y94100D03*
X-14097Y99100D03*
X-14097Y104100D03*
X-14097Y109100D03*
X-14097Y114100D03*
X-14097Y119100D03*
D19*
X-20600Y125603D03*
X-25600Y125603D03*
X-30600Y125603D03*
X-35600Y125603D03*
X-40600Y125603D03*
X-45600Y125603D03*
X-50600Y125603D03*
X-55600Y125603D03*
D17*
X12700Y93100D03*
X12700Y110100D03*
X12700Y55000D03*
X12700Y72000D03*
X152400Y956700D03*
X152400Y973700D03*
D14*
X251770Y958660D02*
X258770Y958660D01*
X258770Y951660D01*
X251770Y951660D01*
X251770Y958660D01*
X251770Y954510D02*
X258770Y954510D01*
X258770Y957360D02*
X251770Y957360D01*
X251770Y976200D02*
X258770Y976200D01*
X258770Y969200D01*
X251770Y969200D01*
X251770Y976200D01*
X251770Y972050D02*
X258770Y972050D01*
X258770Y974900D02*
X251770Y974900D01*
M02*
