G04 EAGLE Gerber RS-274X export*
G75*
%MOMM*%
%FSLAX34Y34*%
%LPD*%
%INSilkscreen Top*%
%IPPOS*%
%AMOC8*
5,1,8,0,0,1.08239X$1,22.5*%
G01*
%ADD10C,0.254000*%
%ADD11C,0.203200*%
%ADD12C,0.152400*%
%ADD13C,0.076200*%

G36*
X646446Y584082D02*
X646446Y584082D01*
X646453Y583963D01*
X646466Y583925D01*
X646471Y583884D01*
X646514Y583774D01*
X646551Y583661D01*
X646573Y583626D01*
X646588Y583589D01*
X646658Y583493D01*
X646721Y583392D01*
X646751Y583364D01*
X646774Y583331D01*
X646866Y583256D01*
X646953Y583174D01*
X646988Y583154D01*
X647019Y583129D01*
X647127Y583078D01*
X647231Y583020D01*
X647271Y583010D01*
X647307Y582993D01*
X647424Y582971D01*
X647539Y582941D01*
X647600Y582937D01*
X647620Y582933D01*
X647640Y582935D01*
X647700Y582931D01*
X774700Y582931D01*
X774721Y582933D01*
X774791Y582934D01*
X780213Y583322D01*
X780223Y583324D01*
X780233Y583323D01*
X780392Y583348D01*
X785704Y584503D01*
X785713Y584506D01*
X785723Y584508D01*
X785878Y584554D01*
X790971Y586454D01*
X790980Y586459D01*
X790990Y586461D01*
X791136Y586529D01*
X795907Y589134D01*
X795915Y589140D01*
X795924Y589144D01*
X796059Y589232D01*
X800411Y592490D01*
X800418Y592497D01*
X800427Y592502D01*
X800548Y592608D01*
X804392Y596452D01*
X804398Y596460D01*
X804406Y596467D01*
X804510Y596589D01*
X807768Y600941D01*
X807773Y600950D01*
X807780Y600957D01*
X807866Y601093D01*
X810471Y605864D01*
X810475Y605874D01*
X810480Y605882D01*
X810546Y606029D01*
X812446Y611122D01*
X812448Y611132D01*
X812453Y611141D01*
X812497Y611296D01*
X813652Y616608D01*
X813653Y616618D01*
X813657Y616628D01*
X813678Y616787D01*
X814066Y622209D01*
X814065Y622231D01*
X814069Y622300D01*
X814069Y698500D01*
X814054Y698618D01*
X814047Y698737D01*
X814034Y698775D01*
X814029Y698816D01*
X813986Y698926D01*
X813949Y699039D01*
X813927Y699074D01*
X813912Y699111D01*
X813843Y699207D01*
X813779Y699308D01*
X813749Y699336D01*
X813726Y699369D01*
X813634Y699445D01*
X813547Y699526D01*
X813512Y699546D01*
X813481Y699571D01*
X813373Y699622D01*
X813269Y699680D01*
X813229Y699690D01*
X813193Y699707D01*
X813076Y699729D01*
X812961Y699759D01*
X812901Y699763D01*
X812881Y699767D01*
X812860Y699765D01*
X812800Y699769D01*
X660926Y699769D01*
X649495Y711200D01*
X660926Y722631D01*
X812800Y722631D01*
X812918Y722646D01*
X813037Y722653D01*
X813075Y722666D01*
X813116Y722671D01*
X813226Y722714D01*
X813339Y722751D01*
X813374Y722773D01*
X813411Y722788D01*
X813507Y722858D01*
X813608Y722921D01*
X813636Y722951D01*
X813669Y722974D01*
X813745Y723066D01*
X813826Y723153D01*
X813846Y723188D01*
X813871Y723219D01*
X813922Y723327D01*
X813980Y723431D01*
X813990Y723471D01*
X814007Y723507D01*
X814029Y723624D01*
X814059Y723739D01*
X814063Y723800D01*
X814067Y723820D01*
X814065Y723840D01*
X814069Y723900D01*
X814069Y800100D01*
X814067Y800121D01*
X814066Y800191D01*
X813678Y805613D01*
X813676Y805623D01*
X813677Y805633D01*
X813652Y805792D01*
X812497Y811104D01*
X812494Y811113D01*
X812493Y811123D01*
X812446Y811278D01*
X810546Y816371D01*
X810541Y816380D01*
X810539Y816390D01*
X810471Y816536D01*
X807866Y821307D01*
X807860Y821315D01*
X807856Y821324D01*
X807768Y821459D01*
X804510Y825811D01*
X804503Y825818D01*
X804498Y825827D01*
X804392Y825948D01*
X800548Y829792D01*
X800540Y829798D01*
X800533Y829806D01*
X800411Y829910D01*
X796059Y833168D01*
X796050Y833173D01*
X796043Y833180D01*
X795907Y833266D01*
X791136Y835871D01*
X791126Y835875D01*
X791118Y835880D01*
X790971Y835946D01*
X785878Y837846D01*
X785868Y837848D01*
X785859Y837853D01*
X785704Y837897D01*
X780392Y839052D01*
X780382Y839053D01*
X780372Y839057D01*
X780213Y839078D01*
X774791Y839466D01*
X774769Y839465D01*
X774700Y839469D01*
X647700Y839469D01*
X647582Y839454D01*
X647463Y839447D01*
X647425Y839434D01*
X647384Y839429D01*
X647274Y839386D01*
X647161Y839349D01*
X647126Y839327D01*
X647089Y839312D01*
X646993Y839243D01*
X646892Y839179D01*
X646864Y839149D01*
X646831Y839126D01*
X646756Y839034D01*
X646674Y838947D01*
X646654Y838912D01*
X646629Y838881D01*
X646578Y838773D01*
X646520Y838669D01*
X646510Y838629D01*
X646493Y838593D01*
X646471Y838476D01*
X646441Y838361D01*
X646437Y838301D01*
X646433Y838281D01*
X646435Y838260D01*
X646431Y838200D01*
X646431Y584200D01*
X646446Y584082D01*
G37*
%LPC*%
G36*
X789700Y777249D02*
X789700Y777249D01*
X683600Y777249D01*
X683587Y777239D01*
X675639Y777239D01*
X675639Y784851D01*
X798831Y784851D01*
X798831Y777239D01*
X789709Y777239D01*
X789707Y777241D01*
X789700Y777249D01*
G37*
%LPD*%
%LPC*%
G36*
X745408Y751549D02*
X745408Y751549D01*
X743914Y751847D01*
X742622Y752344D01*
X741329Y753140D01*
X740133Y754137D01*
X739037Y755232D01*
X738042Y756527D01*
X737345Y757820D01*
X736847Y759213D01*
X736549Y760607D01*
X736449Y762200D01*
X736549Y763794D01*
X736848Y765287D01*
X737346Y766682D01*
X737943Y768076D01*
X738838Y769368D01*
X739833Y770363D01*
X741029Y771360D01*
X742323Y772156D01*
X743715Y772753D01*
X745108Y773051D01*
X746703Y773251D01*
X747497Y773251D01*
X748990Y773052D01*
X750383Y772654D01*
X751777Y772056D01*
X753071Y771260D01*
X754266Y770264D01*
X755361Y769069D01*
X756158Y767875D01*
X756854Y766582D01*
X757252Y765089D01*
X757551Y763595D01*
X757551Y762002D01*
X757451Y760508D01*
X757053Y759015D01*
X756555Y757620D01*
X755858Y756327D01*
X754962Y755131D01*
X753867Y753937D01*
X752672Y753041D01*
X751379Y752245D01*
X749987Y751748D01*
X748494Y751449D01*
X747001Y751349D01*
X745408Y751549D01*
G37*
%LPD*%
%LPC*%
G36*
X762534Y789940D02*
X762534Y789940D01*
X762144Y790622D01*
X760145Y795419D01*
X760109Y795440D01*
X760103Y795449D01*
X758603Y795549D01*
X758601Y795548D01*
X758600Y795549D01*
X755500Y795549D01*
X755453Y795513D01*
X755457Y795508D01*
X755451Y795504D01*
X755351Y794104D01*
X755352Y794101D01*
X755351Y794100D01*
X755351Y792602D01*
X755252Y791113D01*
X754667Y789944D01*
X753098Y789650D01*
X751222Y789847D01*
X750447Y790623D01*
X750249Y792107D01*
X750207Y792149D01*
X750205Y792146D01*
X750203Y792149D01*
X750126Y792153D01*
X750198Y792151D01*
X750247Y792185D01*
X750241Y792194D01*
X750249Y792200D01*
X750249Y808993D01*
X750642Y810368D01*
X751615Y810952D01*
X753402Y811051D01*
X759495Y811051D01*
X760887Y810753D01*
X762278Y810256D01*
X763671Y809360D01*
X764864Y808366D01*
X765757Y807175D01*
X766354Y805783D01*
X766751Y804393D01*
X766751Y802803D01*
X766552Y801211D01*
X766056Y799822D01*
X765259Y798627D01*
X765259Y798624D01*
X765257Y798624D01*
X764657Y797524D01*
X764657Y797521D01*
X764662Y797492D01*
X764655Y797480D01*
X765155Y796380D01*
X765156Y796379D01*
X765155Y796379D01*
X765855Y794881D01*
X766949Y792095D01*
X766755Y791028D01*
X765376Y790044D01*
X763899Y789453D01*
X762534Y789940D01*
G37*
%LPD*%
%LPC*%
G36*
X728102Y637049D02*
X728102Y637049D01*
X726313Y637149D01*
X725140Y637735D01*
X724749Y638908D01*
X724749Y655797D01*
X724947Y657476D01*
X725821Y658253D01*
X727403Y658451D01*
X739690Y658451D01*
X740862Y657963D01*
X741351Y656691D01*
X741351Y654714D01*
X740670Y653644D01*
X739295Y653349D01*
X730100Y653349D01*
X730053Y653313D01*
X730055Y653310D01*
X730051Y653308D01*
X729851Y652008D01*
X729854Y652002D01*
X729851Y652000D01*
X729851Y650500D01*
X729887Y650453D01*
X729890Y650455D01*
X729893Y650451D01*
X731193Y650251D01*
X731198Y650254D01*
X731200Y650251D01*
X735797Y650251D01*
X737177Y650054D01*
X738053Y649178D01*
X738250Y647305D01*
X737759Y645834D01*
X736686Y645248D01*
X735098Y645149D01*
X730500Y645149D01*
X730472Y645128D01*
X730459Y645127D01*
X729859Y644227D01*
X729860Y644207D01*
X729851Y644200D01*
X729851Y642600D01*
X729881Y642560D01*
X729883Y642554D01*
X730983Y642154D01*
X730991Y642156D01*
X730994Y642153D01*
X730998Y642153D01*
X731000Y642151D01*
X738598Y642151D01*
X740084Y642052D01*
X741155Y641370D01*
X741450Y639700D01*
X741155Y637927D01*
X740280Y637247D01*
X738697Y637049D01*
X728102Y637049D01*
G37*
%LPD*%
%LPC*%
G36*
X763236Y751939D02*
X763236Y751939D01*
X762749Y753011D01*
X762749Y771387D01*
X763332Y772456D01*
X764905Y772751D01*
X771098Y772751D01*
X772593Y772651D01*
X773984Y772353D01*
X775374Y771658D01*
X776668Y770663D01*
X777661Y769669D01*
X778556Y768277D01*
X779155Y766881D01*
X779195Y766858D01*
X779200Y766851D01*
X779251Y766851D01*
X779251Y765402D01*
X779151Y763808D01*
X778753Y762316D01*
X778158Y760926D01*
X777166Y759736D01*
X775972Y758841D01*
X774679Y758045D01*
X773288Y757548D01*
X771797Y757349D01*
X768800Y757349D01*
X768787Y757340D01*
X768784Y757340D01*
X768783Y757339D01*
X768775Y757342D01*
X767775Y756742D01*
X767767Y756724D01*
X767753Y756713D01*
X767758Y756705D01*
X767751Y756700D01*
X767751Y753603D01*
X767554Y752229D01*
X766484Y751549D01*
X764607Y751450D01*
X763236Y751939D01*
G37*
%LPD*%
%LPC*%
G36*
X725026Y790142D02*
X725026Y790142D01*
X723745Y791127D01*
X723551Y792197D01*
X724046Y793782D01*
X731443Y808777D01*
X732138Y810067D01*
X733418Y811052D01*
X734788Y811150D01*
X736063Y810365D01*
X736756Y809077D01*
X744155Y793981D01*
X744751Y792391D01*
X744751Y791320D01*
X743672Y790242D01*
X741994Y789551D01*
X740727Y789746D01*
X739842Y790926D01*
X738545Y793721D01*
X738525Y793731D01*
X738524Y793743D01*
X737424Y794343D01*
X737407Y794341D01*
X737400Y794349D01*
X731300Y794349D01*
X731293Y794344D01*
X731289Y794348D01*
X729989Y794048D01*
X729969Y794025D01*
X729956Y794022D01*
X728557Y791223D01*
X727866Y790039D01*
X726501Y789454D01*
X725026Y790142D01*
G37*
%LPD*%
%LPC*%
G36*
X697706Y751449D02*
X697706Y751449D01*
X696215Y751747D01*
X694825Y752343D01*
X693532Y753337D01*
X692536Y754333D01*
X691843Y755126D01*
X691354Y756397D01*
X691940Y757569D01*
X693221Y758653D01*
X694490Y758849D01*
X695671Y758160D01*
X696968Y757062D01*
X696975Y757062D01*
X696976Y757057D01*
X698376Y756257D01*
X698389Y756259D01*
X698391Y756256D01*
X698396Y756256D01*
X698400Y756251D01*
X700100Y756251D01*
X700107Y756256D01*
X700109Y756256D01*
X700116Y756261D01*
X700125Y756257D01*
X701325Y756957D01*
X701333Y756977D01*
X701338Y756981D01*
X701338Y756983D01*
X701347Y756986D01*
X701747Y758386D01*
X701737Y758414D01*
X701741Y758427D01*
X700941Y759627D01*
X700920Y759635D01*
X700917Y759646D01*
X699517Y760146D01*
X699512Y760145D01*
X699510Y760148D01*
X698112Y760448D01*
X696517Y760946D01*
X695121Y761544D01*
X693830Y762240D01*
X692841Y763229D01*
X692146Y764618D01*
X691749Y766106D01*
X691749Y767595D01*
X692047Y769083D01*
X692741Y770372D01*
X693735Y771565D01*
X694826Y772458D01*
X696115Y773053D01*
X697705Y773351D01*
X699398Y773351D01*
X700892Y773251D01*
X702382Y772854D01*
X703774Y772158D01*
X704963Y771267D01*
X705657Y770075D01*
X705692Y770061D01*
X705699Y770051D01*
X705782Y770049D01*
X705700Y770049D01*
X705665Y770023D01*
X705655Y770021D01*
X705058Y768727D01*
X703972Y767443D01*
X702703Y767052D01*
X701325Y767643D01*
X700130Y768539D01*
X700112Y768539D01*
X700106Y768549D01*
X698506Y768749D01*
X698490Y768739D01*
X698479Y768745D01*
X697179Y768145D01*
X697164Y768116D01*
X697152Y768110D01*
X696852Y766610D01*
X696865Y766582D01*
X696862Y766569D01*
X697762Y765469D01*
X697780Y765464D01*
X697783Y765454D01*
X699183Y764954D01*
X699189Y764955D01*
X699190Y764952D01*
X700689Y764652D01*
X702185Y764253D01*
X703678Y763656D01*
X704870Y762961D01*
X705959Y761871D01*
X706553Y760585D01*
X706850Y758997D01*
X706751Y757406D01*
X706453Y755917D01*
X705758Y754627D01*
X704865Y753436D01*
X703575Y752543D01*
X702283Y751947D01*
X700790Y751548D01*
X699298Y751349D01*
X697706Y751449D01*
G37*
%LPD*%
%LPC*%
G36*
X684311Y789648D02*
X684311Y789648D01*
X682821Y790145D01*
X681527Y790941D01*
X680235Y791836D01*
X678749Y793816D01*
X678749Y794983D01*
X679831Y796360D01*
X681204Y796948D01*
X682277Y796655D01*
X683670Y795561D01*
X683672Y795561D01*
X683672Y795560D01*
X684972Y794660D01*
X684984Y794660D01*
X684987Y794652D01*
X686487Y794252D01*
X686500Y794258D01*
X686505Y794258D01*
X686512Y794252D01*
X688112Y794652D01*
X688126Y794670D01*
X688138Y794669D01*
X688938Y795669D01*
X688939Y795695D01*
X688949Y795704D01*
X688849Y797104D01*
X688829Y797127D01*
X688828Y797141D01*
X687528Y798041D01*
X687514Y798040D01*
X687510Y798048D01*
X686012Y798348D01*
X684615Y798747D01*
X683119Y799246D01*
X681726Y799942D01*
X680635Y800736D01*
X679644Y802024D01*
X679148Y803412D01*
X678950Y804900D01*
X679148Y806490D01*
X679545Y807879D01*
X680437Y809167D01*
X681529Y810160D01*
X682719Y810854D01*
X684110Y811252D01*
X685803Y811451D01*
X687395Y811451D01*
X688886Y811153D01*
X690478Y810556D01*
X691569Y809861D01*
X692665Y808765D01*
X692693Y808761D01*
X692702Y808751D01*
X693065Y808764D01*
X692797Y808749D01*
X692752Y808711D01*
X692757Y808705D01*
X692751Y808700D01*
X692751Y807614D01*
X691863Y806134D01*
X690685Y805251D01*
X689416Y805348D01*
X688027Y806241D01*
X688021Y806241D01*
X688021Y806245D01*
X686721Y806845D01*
X686702Y806841D01*
X686694Y806849D01*
X685094Y806649D01*
X685075Y806631D01*
X685062Y806631D01*
X684162Y805531D01*
X684161Y805505D01*
X684155Y805500D01*
X684156Y805498D01*
X684151Y805493D01*
X684351Y804093D01*
X684373Y804072D01*
X684374Y804058D01*
X685674Y803258D01*
X685686Y803259D01*
X685689Y803252D01*
X688687Y802553D01*
X690182Y802054D01*
X691576Y801457D01*
X692664Y800665D01*
X693555Y799379D01*
X693952Y797990D01*
X694150Y796300D01*
X693952Y794812D01*
X693455Y793421D01*
X692662Y792132D01*
X691570Y791140D01*
X690279Y790345D01*
X688787Y789848D01*
X687393Y789549D01*
X685802Y789449D01*
X684311Y789648D01*
G37*
%LPD*%
%LPC*%
G36*
X709811Y637248D02*
X709811Y637248D01*
X708320Y637745D01*
X707028Y638441D01*
X705836Y639434D01*
X704349Y641416D01*
X704349Y642583D01*
X705333Y643862D01*
X706609Y644549D01*
X707778Y644354D01*
X709168Y643163D01*
X709172Y643162D01*
X709172Y643160D01*
X710472Y642260D01*
X710484Y642260D01*
X710486Y642253D01*
X711886Y641853D01*
X711899Y641858D01*
X711905Y641858D01*
X711911Y641852D01*
X713611Y642252D01*
X713626Y642270D01*
X713638Y642269D01*
X714438Y643269D01*
X714439Y643295D01*
X714449Y643304D01*
X714349Y644704D01*
X714330Y644726D01*
X714330Y644739D01*
X713130Y645639D01*
X713115Y645639D01*
X713112Y645648D01*
X710214Y646347D01*
X708719Y646846D01*
X707325Y647543D01*
X706135Y648336D01*
X705244Y649623D01*
X704748Y650914D01*
X704450Y652501D01*
X704648Y653988D01*
X705145Y655379D01*
X705939Y656669D01*
X707030Y657761D01*
X708219Y658454D01*
X709610Y658852D01*
X711303Y659051D01*
X712895Y659051D01*
X714388Y658752D01*
X715978Y658255D01*
X717069Y657462D01*
X718251Y656378D01*
X718251Y655214D01*
X717363Y653734D01*
X716185Y652851D01*
X714917Y652948D01*
X713628Y653841D01*
X713621Y653840D01*
X713619Y653845D01*
X712219Y654445D01*
X712201Y654441D01*
X712194Y654449D01*
X710694Y654249D01*
X710678Y654233D01*
X710665Y654235D01*
X709665Y653235D01*
X709661Y653203D01*
X709655Y653198D01*
X709651Y653194D01*
X709851Y651694D01*
X709875Y651670D01*
X709877Y651657D01*
X711177Y650957D01*
X711185Y650958D01*
X711187Y650952D01*
X712687Y650552D01*
X714186Y650153D01*
X715684Y649653D01*
X717075Y649157D01*
X718163Y648266D01*
X719056Y646977D01*
X719551Y645590D01*
X719651Y644002D01*
X719452Y642411D01*
X718955Y641021D01*
X718162Y639732D01*
X717070Y638740D01*
X715779Y637945D01*
X714387Y637448D01*
X712894Y637149D01*
X711401Y637049D01*
X709811Y637248D01*
G37*
%LPD*%
%LPC*%
G36*
X719730Y751546D02*
X719730Y751546D01*
X718949Y752814D01*
X718949Y768000D01*
X718927Y768030D01*
X718925Y768042D01*
X717925Y768642D01*
X717907Y768640D01*
X717900Y768649D01*
X713403Y768649D01*
X711930Y768846D01*
X711249Y770013D01*
X711249Y771681D01*
X712123Y772652D01*
X714101Y772751D01*
X729297Y772751D01*
X730869Y772554D01*
X731451Y771487D01*
X731451Y769900D01*
X731475Y769869D01*
X731476Y769857D01*
X731496Y769846D01*
X731484Y769837D01*
X731464Y769834D01*
X731465Y769828D01*
X731460Y769828D01*
X730772Y768846D01*
X729297Y768649D01*
X724700Y768649D01*
X724677Y768631D01*
X724663Y768632D01*
X723963Y767832D01*
X723961Y767808D01*
X723951Y767800D01*
X723951Y754003D01*
X723753Y752622D01*
X722776Y751547D01*
X721200Y751350D01*
X719730Y751546D01*
G37*
%LPD*%
%LPC*%
G36*
X754611Y637149D02*
X754611Y637149D01*
X753345Y637734D01*
X753149Y639103D01*
X753149Y652900D01*
X753146Y652904D01*
X753149Y652907D01*
X752949Y654307D01*
X752906Y654349D01*
X752903Y654345D01*
X752900Y654349D01*
X746713Y654349D01*
X745546Y655030D01*
X745350Y656498D01*
X745643Y657963D01*
X747009Y658451D01*
X764288Y658451D01*
X765455Y657868D01*
X765650Y656400D01*
X765455Y654932D01*
X764288Y654349D01*
X762700Y654349D01*
X762699Y654349D01*
X758099Y654249D01*
X758052Y654212D01*
X758058Y654205D01*
X758051Y654200D01*
X758051Y638909D01*
X757562Y637638D01*
X756291Y637149D01*
X754611Y637149D01*
G37*
%LPD*%
%LPC*%
G36*
X707712Y789549D02*
X707712Y789549D01*
X706445Y790232D01*
X706249Y791504D01*
X706249Y805400D01*
X706246Y805405D01*
X706249Y805408D01*
X706049Y806708D01*
X706006Y806749D01*
X706003Y806746D01*
X706000Y806749D01*
X699813Y806749D01*
X698646Y807430D01*
X698450Y808996D01*
X698841Y810363D01*
X700109Y810851D01*
X717487Y810851D01*
X718653Y810171D01*
X718751Y808702D01*
X718555Y807235D01*
X717390Y806749D01*
X712700Y806749D01*
X712698Y806748D01*
X712697Y806749D01*
X711197Y806649D01*
X711152Y806610D01*
X711157Y806605D01*
X711151Y806600D01*
X711151Y791209D01*
X710663Y789940D01*
X709393Y789549D01*
X707712Y789549D01*
G37*
%LPD*%
%LPC*%
G36*
X780112Y789549D02*
X780112Y789549D01*
X778943Y790133D01*
X778649Y791505D01*
X778649Y805300D01*
X778646Y805304D01*
X778649Y805307D01*
X778449Y806707D01*
X778406Y806749D01*
X778403Y806745D01*
X778400Y806749D01*
X772214Y806749D01*
X771126Y807442D01*
X771095Y807439D01*
X771084Y807447D01*
X771045Y807433D01*
X770850Y808897D01*
X771241Y810363D01*
X772509Y810851D01*
X789789Y810851D01*
X791053Y810268D01*
X791151Y808800D01*
X791053Y807332D01*
X789789Y806749D01*
X783600Y806749D01*
X783553Y806713D01*
X783558Y806706D01*
X783551Y806700D01*
X783551Y791309D01*
X783062Y790038D01*
X781791Y789549D01*
X780112Y789549D01*
G37*
%LPD*%
G36*
X747908Y756557D02*
X747908Y756557D01*
X747914Y756553D01*
X749314Y756953D01*
X749321Y756962D01*
X749328Y756960D01*
X750628Y757860D01*
X750631Y757867D01*
X750636Y757867D01*
X751636Y758967D01*
X751637Y758978D01*
X751645Y758979D01*
X752245Y760279D01*
X752242Y760290D01*
X752249Y760294D01*
X752449Y761894D01*
X752446Y761900D01*
X752449Y761903D01*
X752349Y763603D01*
X752344Y763609D01*
X752347Y763614D01*
X751947Y765014D01*
X751939Y765020D01*
X751941Y765027D01*
X751141Y766227D01*
X751131Y766231D01*
X751132Y766238D01*
X749932Y767238D01*
X749923Y767238D01*
X749922Y767244D01*
X748522Y767944D01*
X748511Y767942D01*
X748507Y767949D01*
X747107Y768149D01*
X747098Y768144D01*
X747094Y768149D01*
X745594Y767949D01*
X745585Y767941D01*
X745578Y767944D01*
X744178Y767244D01*
X744174Y767237D01*
X744168Y767238D01*
X742968Y766238D01*
X742966Y766228D01*
X742959Y766227D01*
X742159Y765027D01*
X742160Y765018D01*
X742154Y765017D01*
X741654Y763617D01*
X741656Y763610D01*
X741652Y763607D01*
X741654Y763605D01*
X741651Y763603D01*
X741551Y762003D01*
X741552Y762001D01*
X741551Y762000D01*
X741551Y760500D01*
X741561Y760487D01*
X741556Y760477D01*
X742456Y758777D01*
X742469Y758771D01*
X742468Y758762D01*
X743668Y757762D01*
X743674Y757762D01*
X743674Y757758D01*
X744974Y756958D01*
X744984Y756959D01*
X744986Y756953D01*
X746386Y756553D01*
X746396Y756556D01*
X746400Y756551D01*
X747900Y756551D01*
X747908Y756557D01*
G37*
G36*
X758504Y800654D02*
X758504Y800654D01*
X758507Y800651D01*
X760007Y800851D01*
X760018Y800862D01*
X760027Y800859D01*
X761227Y801659D01*
X761235Y801680D01*
X761247Y801684D01*
X761747Y803184D01*
X761742Y803197D01*
X761744Y803198D01*
X761740Y803204D01*
X761748Y803213D01*
X761348Y804713D01*
X761331Y804726D01*
X761332Y804738D01*
X760132Y805738D01*
X760113Y805739D01*
X760107Y805749D01*
X758707Y805949D01*
X758702Y805946D01*
X758700Y805949D01*
X755600Y805949D01*
X755553Y805913D01*
X755555Y805910D01*
X755551Y805908D01*
X755351Y804608D01*
X755353Y804604D01*
X755354Y804602D01*
X755351Y804600D01*
X755351Y801500D01*
X755354Y801496D01*
X755351Y801494D01*
X755451Y800694D01*
X755493Y800651D01*
X755497Y800655D01*
X755500Y800651D01*
X758500Y800651D01*
X758504Y800654D01*
G37*
G36*
X771410Y762459D02*
X771410Y762459D01*
X771418Y762454D01*
X773518Y763254D01*
X773532Y763277D01*
X773545Y763281D01*
X774145Y764681D01*
X774140Y764700D01*
X774144Y764703D01*
X774144Y764704D01*
X774148Y764709D01*
X773848Y766309D01*
X773832Y766324D01*
X773833Y766336D01*
X772733Y767336D01*
X772715Y767338D01*
X772710Y767348D01*
X771310Y767648D01*
X771303Y767645D01*
X771300Y767649D01*
X768300Y767649D01*
X768265Y767623D01*
X768255Y767620D01*
X767755Y766520D01*
X767758Y766507D01*
X767753Y766503D01*
X767753Y766502D01*
X767751Y766500D01*
X767751Y763500D01*
X767762Y763485D01*
X767758Y763475D01*
X768358Y762475D01*
X768392Y762461D01*
X768400Y762451D01*
X771400Y762451D01*
X771410Y762459D01*
G37*
G36*
X-43693Y132590D02*
X-43693Y132590D01*
X-43691Y132589D01*
X-43648Y132609D01*
X-43604Y132627D01*
X-43604Y132629D01*
X-43602Y132630D01*
X-43569Y132715D01*
X-43569Y135255D01*
X-43570Y135257D01*
X-43569Y135259D01*
X-43589Y135302D01*
X-43607Y135346D01*
X-43609Y135346D01*
X-43610Y135348D01*
X-43695Y135381D01*
X-47505Y135381D01*
X-47507Y135380D01*
X-47509Y135381D01*
X-47552Y135361D01*
X-47596Y135343D01*
X-47596Y135341D01*
X-47598Y135340D01*
X-47631Y135255D01*
X-47631Y132715D01*
X-47630Y132713D01*
X-47631Y132711D01*
X-47611Y132668D01*
X-47593Y132624D01*
X-47591Y132624D01*
X-47590Y132622D01*
X-47505Y132589D01*
X-43695Y132589D01*
X-43693Y132590D01*
G37*
G36*
X-4443Y97070D02*
X-4443Y97070D01*
X-4441Y97069D01*
X-4398Y97089D01*
X-4354Y97107D01*
X-4354Y97109D01*
X-4352Y97110D01*
X-4319Y97195D01*
X-4319Y101005D01*
X-4320Y101007D01*
X-4319Y101009D01*
X-4339Y101052D01*
X-4357Y101096D01*
X-4359Y101096D01*
X-4360Y101098D01*
X-4445Y101131D01*
X-6985Y101131D01*
X-6987Y101130D01*
X-6989Y101131D01*
X-7032Y101111D01*
X-7076Y101093D01*
X-7076Y101091D01*
X-7078Y101090D01*
X-7111Y101005D01*
X-7111Y97195D01*
X-7110Y97193D01*
X-7111Y97191D01*
X-7091Y97148D01*
X-7073Y97104D01*
X-7071Y97104D01*
X-7070Y97102D01*
X-6985Y97069D01*
X-4445Y97069D01*
X-4443Y97070D01*
G37*
G36*
X-48693Y67820D02*
X-48693Y67820D01*
X-48691Y67819D01*
X-48648Y67839D01*
X-48604Y67857D01*
X-48604Y67859D01*
X-48602Y67860D01*
X-48569Y67945D01*
X-48569Y70485D01*
X-48570Y70487D01*
X-48569Y70489D01*
X-48589Y70532D01*
X-48607Y70576D01*
X-48609Y70576D01*
X-48610Y70578D01*
X-48695Y70611D01*
X-52505Y70611D01*
X-52507Y70610D01*
X-52509Y70611D01*
X-52552Y70591D01*
X-52596Y70573D01*
X-52596Y70571D01*
X-52598Y70570D01*
X-52631Y70485D01*
X-52631Y67945D01*
X-52630Y67943D01*
X-52631Y67941D01*
X-52611Y67898D01*
X-52593Y67854D01*
X-52591Y67854D01*
X-52590Y67852D01*
X-52505Y67819D01*
X-48695Y67819D01*
X-48693Y67820D01*
G37*
G36*
X736004Y798554D02*
X736004Y798554D01*
X736008Y798551D01*
X736013Y798560D01*
X736047Y798587D01*
X736035Y798603D01*
X736045Y798621D01*
X734745Y801421D01*
X734728Y801430D01*
X734727Y801441D01*
X733827Y802041D01*
X733808Y802040D01*
X733803Y802048D01*
X733799Y802048D01*
X733787Y802039D01*
X733768Y802037D01*
X733769Y802024D01*
X733767Y802023D01*
X733755Y802021D01*
X732455Y799221D01*
X732466Y799171D01*
X732465Y799165D01*
X733065Y798565D01*
X733092Y798562D01*
X733100Y798551D01*
X736000Y798551D01*
X736004Y798554D01*
G37*
D10*
X-135900Y-25400D02*
X-135900Y227940D01*
X-215900Y227940D02*
X-215900Y-25400D01*
X165100Y203200D02*
X177800Y215900D01*
X228600Y215900D01*
X241300Y203200D01*
X228600Y190500D01*
X177800Y190500D01*
X165100Y203200D01*
X152400Y190500D02*
X165100Y177800D01*
X165100Y127000D01*
X152400Y114300D01*
X139700Y127000D01*
X139700Y177800D01*
X152400Y190500D01*
X254000Y190500D02*
X266700Y177800D01*
X266700Y127000D01*
X254000Y114300D01*
X241300Y127000D01*
X241300Y177800D01*
X254000Y190500D01*
X177800Y114300D02*
X165100Y101600D01*
X177800Y114300D02*
X228600Y114300D01*
X241300Y101600D01*
X228600Y88900D01*
X177800Y88900D01*
X165100Y101600D01*
X152400Y88900D02*
X165100Y76200D01*
X165100Y25400D01*
X152400Y12700D01*
X139700Y25400D01*
X139700Y76200D01*
X152400Y88900D01*
X241300Y76200D02*
X254000Y88900D01*
X241300Y76200D02*
X241300Y25400D01*
X254000Y12700D01*
X266700Y25400D01*
X266700Y76200D01*
X254000Y88900D01*
X177800Y12700D02*
X165100Y0D01*
X177800Y12700D02*
X228600Y12700D01*
X241300Y0D01*
X228600Y-12700D01*
X177800Y-12700D01*
X165100Y0D01*
X342900Y203200D02*
X355600Y215900D01*
X406400Y215900D01*
X419100Y203200D01*
X406400Y190500D01*
X355600Y190500D01*
X342900Y203200D01*
X330200Y190500D02*
X342900Y177800D01*
X342900Y127000D01*
X330200Y114300D01*
X317500Y127000D01*
X317500Y177800D01*
X330200Y190500D01*
X431800Y190500D02*
X444500Y177800D01*
X444500Y127000D01*
X431800Y114300D01*
X419100Y127000D01*
X419100Y177800D01*
X431800Y190500D01*
X355600Y114300D02*
X342900Y101600D01*
X355600Y114300D02*
X406400Y114300D01*
X419100Y101600D01*
X406400Y88900D01*
X355600Y88900D01*
X342900Y101600D01*
X330200Y88900D02*
X342900Y76200D01*
X342900Y25400D01*
X330200Y12700D01*
X317500Y25400D01*
X317500Y76200D01*
X330200Y88900D01*
X419100Y76200D02*
X431800Y88900D01*
X419100Y76200D02*
X419100Y25400D01*
X431800Y12700D01*
X444500Y25400D01*
X444500Y76200D01*
X431800Y88900D01*
X355600Y12700D02*
X342900Y0D01*
X355600Y12700D02*
X406400Y12700D01*
X419100Y0D01*
X406400Y-12700D01*
X355600Y-12700D01*
X342900Y0D01*
X520700Y203200D02*
X533400Y215900D01*
X584200Y215900D01*
X596900Y203200D01*
X584200Y190500D01*
X533400Y190500D01*
X520700Y203200D01*
X508000Y190500D02*
X520700Y177800D01*
X520700Y127000D01*
X508000Y114300D01*
X495300Y127000D01*
X495300Y177800D01*
X508000Y190500D01*
X609600Y190500D02*
X622300Y177800D01*
X622300Y127000D01*
X609600Y114300D01*
X596900Y127000D01*
X596900Y177800D01*
X609600Y190500D01*
X533400Y114300D02*
X520700Y101600D01*
X533400Y114300D02*
X584200Y114300D01*
X596900Y101600D01*
X584200Y88900D01*
X533400Y88900D01*
X520700Y101600D01*
X508000Y88900D02*
X520700Y76200D01*
X520700Y25400D01*
X508000Y12700D01*
X495300Y25400D01*
X495300Y76200D01*
X508000Y88900D01*
X596900Y76200D02*
X609600Y88900D01*
X596900Y76200D02*
X596900Y25400D01*
X609600Y12700D01*
X622300Y25400D01*
X622300Y76200D01*
X609600Y88900D01*
X533400Y12700D02*
X520700Y0D01*
X533400Y12700D02*
X584200Y12700D01*
X596900Y0D01*
X584200Y-12700D01*
X533400Y-12700D01*
X520700Y0D01*
X647700Y101600D02*
X812800Y101600D01*
X-135900Y584200D02*
X-135900Y837540D01*
X-215900Y837540D02*
X-215900Y584200D01*
D11*
X736600Y177800D02*
X736600Y152700D01*
X746600Y190500D02*
X777400Y190500D01*
X787400Y177500D02*
X787400Y152700D01*
X777400Y139700D02*
X746600Y139700D01*
X749300Y165100D02*
X749304Y165412D01*
X749315Y165723D01*
X749334Y166034D01*
X749361Y166345D01*
X749396Y166655D01*
X749437Y166963D01*
X749487Y167271D01*
X749544Y167578D01*
X749609Y167883D01*
X749681Y168186D01*
X749760Y168487D01*
X749847Y168787D01*
X749941Y169084D01*
X750042Y169379D01*
X750151Y169671D01*
X750267Y169960D01*
X750390Y170247D01*
X750519Y170530D01*
X750656Y170810D01*
X750800Y171087D01*
X750950Y171360D01*
X751107Y171629D01*
X751270Y171894D01*
X751440Y172156D01*
X751617Y172413D01*
X751799Y172665D01*
X751988Y172913D01*
X752183Y173157D01*
X752383Y173395D01*
X752590Y173629D01*
X752802Y173857D01*
X753020Y174080D01*
X753243Y174298D01*
X753471Y174510D01*
X753705Y174717D01*
X753943Y174917D01*
X754187Y175112D01*
X754435Y175301D01*
X754687Y175483D01*
X754944Y175660D01*
X755206Y175830D01*
X755471Y175993D01*
X755740Y176150D01*
X756013Y176300D01*
X756290Y176444D01*
X756570Y176581D01*
X756853Y176710D01*
X757140Y176833D01*
X757429Y176949D01*
X757721Y177058D01*
X758016Y177159D01*
X758313Y177253D01*
X758613Y177340D01*
X758914Y177419D01*
X759217Y177491D01*
X759522Y177556D01*
X759829Y177613D01*
X760137Y177663D01*
X760445Y177704D01*
X760755Y177739D01*
X761066Y177766D01*
X761377Y177785D01*
X761688Y177796D01*
X762000Y177800D01*
X762312Y177796D01*
X762623Y177785D01*
X762934Y177766D01*
X763245Y177739D01*
X763555Y177704D01*
X763863Y177663D01*
X764171Y177613D01*
X764478Y177556D01*
X764783Y177491D01*
X765086Y177419D01*
X765387Y177340D01*
X765687Y177253D01*
X765984Y177159D01*
X766279Y177058D01*
X766571Y176949D01*
X766860Y176833D01*
X767147Y176710D01*
X767430Y176581D01*
X767710Y176444D01*
X767987Y176300D01*
X768260Y176150D01*
X768529Y175993D01*
X768794Y175830D01*
X769056Y175660D01*
X769313Y175483D01*
X769565Y175301D01*
X769813Y175112D01*
X770057Y174917D01*
X770295Y174717D01*
X770529Y174510D01*
X770757Y174298D01*
X770980Y174080D01*
X771198Y173857D01*
X771410Y173629D01*
X771617Y173395D01*
X771817Y173157D01*
X772012Y172913D01*
X772201Y172665D01*
X772383Y172413D01*
X772560Y172156D01*
X772730Y171894D01*
X772893Y171629D01*
X773050Y171360D01*
X773200Y171087D01*
X773344Y170810D01*
X773481Y170530D01*
X773610Y170247D01*
X773733Y169960D01*
X773849Y169671D01*
X773958Y169379D01*
X774059Y169084D01*
X774153Y168787D01*
X774240Y168487D01*
X774319Y168186D01*
X774391Y167883D01*
X774456Y167578D01*
X774513Y167271D01*
X774563Y166963D01*
X774604Y166655D01*
X774639Y166345D01*
X774666Y166034D01*
X774685Y165723D01*
X774696Y165412D01*
X774700Y165100D01*
X774696Y164788D01*
X774685Y164477D01*
X774666Y164166D01*
X774639Y163855D01*
X774604Y163545D01*
X774563Y163237D01*
X774513Y162929D01*
X774456Y162622D01*
X774391Y162317D01*
X774319Y162014D01*
X774240Y161713D01*
X774153Y161413D01*
X774059Y161116D01*
X773958Y160821D01*
X773849Y160529D01*
X773733Y160240D01*
X773610Y159953D01*
X773481Y159670D01*
X773344Y159390D01*
X773200Y159113D01*
X773050Y158840D01*
X772893Y158571D01*
X772730Y158306D01*
X772560Y158044D01*
X772383Y157787D01*
X772201Y157535D01*
X772012Y157287D01*
X771817Y157043D01*
X771617Y156805D01*
X771410Y156571D01*
X771198Y156343D01*
X770980Y156120D01*
X770757Y155902D01*
X770529Y155690D01*
X770295Y155483D01*
X770057Y155283D01*
X769813Y155088D01*
X769565Y154899D01*
X769313Y154717D01*
X769056Y154540D01*
X768794Y154370D01*
X768529Y154207D01*
X768260Y154050D01*
X767987Y153900D01*
X767710Y153756D01*
X767430Y153619D01*
X767147Y153490D01*
X766860Y153367D01*
X766571Y153251D01*
X766279Y153142D01*
X765984Y153041D01*
X765687Y152947D01*
X765387Y152860D01*
X765086Y152781D01*
X764783Y152709D01*
X764478Y152644D01*
X764171Y152587D01*
X763863Y152537D01*
X763555Y152496D01*
X763245Y152461D01*
X762934Y152434D01*
X762623Y152415D01*
X762312Y152404D01*
X762000Y152400D01*
X761688Y152404D01*
X761377Y152415D01*
X761066Y152434D01*
X760755Y152461D01*
X760445Y152496D01*
X760137Y152537D01*
X759829Y152587D01*
X759522Y152644D01*
X759217Y152709D01*
X758914Y152781D01*
X758613Y152860D01*
X758313Y152947D01*
X758016Y153041D01*
X757721Y153142D01*
X757429Y153251D01*
X757140Y153367D01*
X756853Y153490D01*
X756570Y153619D01*
X756290Y153756D01*
X756013Y153900D01*
X755740Y154050D01*
X755471Y154207D01*
X755206Y154370D01*
X754944Y154540D01*
X754687Y154717D01*
X754435Y154899D01*
X754187Y155088D01*
X753943Y155283D01*
X753705Y155483D01*
X753471Y155690D01*
X753243Y155902D01*
X753020Y156120D01*
X752802Y156343D01*
X752590Y156571D01*
X752383Y156805D01*
X752183Y157043D01*
X751988Y157287D01*
X751799Y157535D01*
X751617Y157787D01*
X751440Y158044D01*
X751270Y158306D01*
X751107Y158571D01*
X750950Y158840D01*
X750800Y159113D01*
X750656Y159390D01*
X750519Y159670D01*
X750390Y159953D01*
X750267Y160240D01*
X750151Y160529D01*
X750042Y160821D01*
X749941Y161116D01*
X749847Y161413D01*
X749760Y161713D01*
X749681Y162014D01*
X749609Y162317D01*
X749544Y162622D01*
X749487Y162929D01*
X749437Y163237D01*
X749396Y163545D01*
X749361Y163855D01*
X749334Y164166D01*
X749315Y164477D01*
X749304Y164788D01*
X749300Y165100D01*
X736600Y50800D02*
X736600Y25700D01*
X746600Y63500D02*
X777400Y63500D01*
X787400Y50500D02*
X787400Y25700D01*
X777400Y12700D02*
X746600Y12700D01*
X749300Y38100D02*
X749304Y38412D01*
X749315Y38723D01*
X749334Y39034D01*
X749361Y39345D01*
X749396Y39655D01*
X749437Y39963D01*
X749487Y40271D01*
X749544Y40578D01*
X749609Y40883D01*
X749681Y41186D01*
X749760Y41487D01*
X749847Y41787D01*
X749941Y42084D01*
X750042Y42379D01*
X750151Y42671D01*
X750267Y42960D01*
X750390Y43247D01*
X750519Y43530D01*
X750656Y43810D01*
X750800Y44087D01*
X750950Y44360D01*
X751107Y44629D01*
X751270Y44894D01*
X751440Y45156D01*
X751617Y45413D01*
X751799Y45665D01*
X751988Y45913D01*
X752183Y46157D01*
X752383Y46395D01*
X752590Y46629D01*
X752802Y46857D01*
X753020Y47080D01*
X753243Y47298D01*
X753471Y47510D01*
X753705Y47717D01*
X753943Y47917D01*
X754187Y48112D01*
X754435Y48301D01*
X754687Y48483D01*
X754944Y48660D01*
X755206Y48830D01*
X755471Y48993D01*
X755740Y49150D01*
X756013Y49300D01*
X756290Y49444D01*
X756570Y49581D01*
X756853Y49710D01*
X757140Y49833D01*
X757429Y49949D01*
X757721Y50058D01*
X758016Y50159D01*
X758313Y50253D01*
X758613Y50340D01*
X758914Y50419D01*
X759217Y50491D01*
X759522Y50556D01*
X759829Y50613D01*
X760137Y50663D01*
X760445Y50704D01*
X760755Y50739D01*
X761066Y50766D01*
X761377Y50785D01*
X761688Y50796D01*
X762000Y50800D01*
X762312Y50796D01*
X762623Y50785D01*
X762934Y50766D01*
X763245Y50739D01*
X763555Y50704D01*
X763863Y50663D01*
X764171Y50613D01*
X764478Y50556D01*
X764783Y50491D01*
X765086Y50419D01*
X765387Y50340D01*
X765687Y50253D01*
X765984Y50159D01*
X766279Y50058D01*
X766571Y49949D01*
X766860Y49833D01*
X767147Y49710D01*
X767430Y49581D01*
X767710Y49444D01*
X767987Y49300D01*
X768260Y49150D01*
X768529Y48993D01*
X768794Y48830D01*
X769056Y48660D01*
X769313Y48483D01*
X769565Y48301D01*
X769813Y48112D01*
X770057Y47917D01*
X770295Y47717D01*
X770529Y47510D01*
X770757Y47298D01*
X770980Y47080D01*
X771198Y46857D01*
X771410Y46629D01*
X771617Y46395D01*
X771817Y46157D01*
X772012Y45913D01*
X772201Y45665D01*
X772383Y45413D01*
X772560Y45156D01*
X772730Y44894D01*
X772893Y44629D01*
X773050Y44360D01*
X773200Y44087D01*
X773344Y43810D01*
X773481Y43530D01*
X773610Y43247D01*
X773733Y42960D01*
X773849Y42671D01*
X773958Y42379D01*
X774059Y42084D01*
X774153Y41787D01*
X774240Y41487D01*
X774319Y41186D01*
X774391Y40883D01*
X774456Y40578D01*
X774513Y40271D01*
X774563Y39963D01*
X774604Y39655D01*
X774639Y39345D01*
X774666Y39034D01*
X774685Y38723D01*
X774696Y38412D01*
X774700Y38100D01*
X774696Y37788D01*
X774685Y37477D01*
X774666Y37166D01*
X774639Y36855D01*
X774604Y36545D01*
X774563Y36237D01*
X774513Y35929D01*
X774456Y35622D01*
X774391Y35317D01*
X774319Y35014D01*
X774240Y34713D01*
X774153Y34413D01*
X774059Y34116D01*
X773958Y33821D01*
X773849Y33529D01*
X773733Y33240D01*
X773610Y32953D01*
X773481Y32670D01*
X773344Y32390D01*
X773200Y32113D01*
X773050Y31840D01*
X772893Y31571D01*
X772730Y31306D01*
X772560Y31044D01*
X772383Y30787D01*
X772201Y30535D01*
X772012Y30287D01*
X771817Y30043D01*
X771617Y29805D01*
X771410Y29571D01*
X771198Y29343D01*
X770980Y29120D01*
X770757Y28902D01*
X770529Y28690D01*
X770295Y28483D01*
X770057Y28283D01*
X769813Y28088D01*
X769565Y27899D01*
X769313Y27717D01*
X769056Y27540D01*
X768794Y27370D01*
X768529Y27207D01*
X768260Y27050D01*
X767987Y26900D01*
X767710Y26756D01*
X767430Y26619D01*
X767147Y26490D01*
X766860Y26367D01*
X766571Y26251D01*
X766279Y26142D01*
X765984Y26041D01*
X765687Y25947D01*
X765387Y25860D01*
X765086Y25781D01*
X764783Y25709D01*
X764478Y25644D01*
X764171Y25587D01*
X763863Y25537D01*
X763555Y25496D01*
X763245Y25461D01*
X762934Y25434D01*
X762623Y25415D01*
X762312Y25404D01*
X762000Y25400D01*
X761688Y25404D01*
X761377Y25415D01*
X761066Y25434D01*
X760755Y25461D01*
X760445Y25496D01*
X760137Y25537D01*
X759829Y25587D01*
X759522Y25644D01*
X759217Y25709D01*
X758914Y25781D01*
X758613Y25860D01*
X758313Y25947D01*
X758016Y26041D01*
X757721Y26142D01*
X757429Y26251D01*
X757140Y26367D01*
X756853Y26490D01*
X756570Y26619D01*
X756290Y26756D01*
X756013Y26900D01*
X755740Y27050D01*
X755471Y27207D01*
X755206Y27370D01*
X754944Y27540D01*
X754687Y27717D01*
X754435Y27899D01*
X754187Y28088D01*
X753943Y28283D01*
X753705Y28483D01*
X753471Y28690D01*
X753243Y28902D01*
X753020Y29120D01*
X752802Y29343D01*
X752590Y29571D01*
X752383Y29805D01*
X752183Y30043D01*
X751988Y30287D01*
X751799Y30535D01*
X751617Y30787D01*
X751440Y31044D01*
X751270Y31306D01*
X751107Y31571D01*
X750950Y31840D01*
X750800Y32113D01*
X750656Y32390D01*
X750519Y32670D01*
X750390Y32953D01*
X750267Y33240D01*
X750151Y33529D01*
X750042Y33821D01*
X749941Y34116D01*
X749847Y34413D01*
X749760Y34713D01*
X749681Y35014D01*
X749609Y35317D01*
X749544Y35622D01*
X749487Y35929D01*
X749437Y36237D01*
X749396Y36545D01*
X749361Y36855D01*
X749334Y37166D01*
X749315Y37477D01*
X749304Y37788D01*
X749300Y38100D01*
X-35770Y208630D02*
X-35770Y217170D01*
X33770Y217170D02*
X33770Y208630D01*
X26000Y227170D02*
X-28000Y227170D01*
X-2270Y198630D02*
X15270Y198630D01*
X147638Y168275D02*
X157163Y168275D01*
X249238Y168275D02*
X258763Y168275D01*
X157163Y66675D02*
X147638Y66675D01*
X249238Y66675D02*
X258763Y66675D01*
X219075Y198438D02*
X219075Y207963D01*
X219075Y106363D02*
X219075Y96838D01*
X219075Y4763D02*
X219075Y-4763D01*
X-148738Y66075D02*
X-158263Y66075D01*
X325438Y168275D02*
X334963Y168275D01*
X427038Y168275D02*
X436563Y168275D01*
X334963Y66675D02*
X325438Y66675D01*
X427038Y66675D02*
X436563Y66675D01*
X396875Y198438D02*
X396875Y207963D01*
X396875Y106363D02*
X396875Y96838D01*
X396875Y4763D02*
X396875Y-4763D01*
X503238Y168275D02*
X512763Y168275D01*
X604838Y168275D02*
X614363Y168275D01*
X512763Y66675D02*
X503238Y66675D01*
X604838Y66675D02*
X614363Y66675D01*
X574675Y198438D02*
X574675Y207963D01*
X574675Y106363D02*
X574675Y96838D01*
X574675Y4763D02*
X574675Y-4763D01*
X95900Y58800D02*
X95900Y64800D01*
X87900Y64800D01*
X95900Y42800D02*
X95900Y36800D01*
X87900Y36800D01*
X95900Y26700D02*
X95900Y20700D01*
X95900Y26700D02*
X87900Y26700D01*
X95900Y4700D02*
X95900Y-1300D01*
X87900Y-1300D01*
X95900Y96900D02*
X95900Y102900D01*
X87900Y102900D01*
X95900Y80900D02*
X95900Y74900D01*
X87900Y74900D01*
D12*
X-60198Y74676D02*
X-65024Y74676D01*
X-11176Y74676D02*
X-11176Y79502D01*
X-11176Y128524D02*
X-16002Y128524D01*
X-65024Y128524D02*
X-65024Y123698D01*
X-65024Y79502D02*
X-65024Y74676D01*
X-16002Y74676D02*
X-11176Y74676D01*
X-11176Y123698D02*
X-11176Y128524D01*
X-60198Y128524D02*
X-65024Y128524D01*
D13*
X-74711Y124319D02*
X-74711Y120340D01*
X-72390Y117355D01*
X-74711Y120340D02*
X-77033Y117355D01*
X-74711Y120340D02*
X-71064Y121666D01*
X-74711Y120340D02*
X-78359Y121666D01*
D11*
X-95250Y215900D02*
X-107950Y215900D01*
X-95250Y215900D02*
X-88900Y209550D01*
X-88900Y196850D02*
X-95250Y190500D01*
X-88900Y209550D02*
X-82550Y215900D01*
X-69850Y215900D01*
X-63500Y209550D01*
X-63500Y196850D02*
X-69850Y190500D01*
X-82550Y190500D01*
X-88900Y196850D01*
X-114300Y196850D02*
X-114300Y209550D01*
X-107950Y215900D01*
X-114300Y196850D02*
X-107950Y190500D01*
X-95250Y190500D01*
X-63500Y196850D02*
X-63500Y209550D01*
X476250Y165100D02*
X482600Y158750D01*
X476250Y165100D02*
X463550Y165100D01*
X457200Y158750D01*
X457200Y146050D01*
X463550Y139700D01*
X476250Y139700D01*
X482600Y146050D01*
X482600Y158750D01*
X476250Y63500D02*
X482600Y57150D01*
X476250Y63500D02*
X463550Y63500D01*
X457200Y57150D01*
X457200Y44450D01*
X463550Y38100D01*
X476250Y38100D01*
X482600Y44450D01*
X482600Y57150D01*
X304800Y158750D02*
X298450Y165100D01*
X285750Y165100D01*
X279400Y158750D01*
X279400Y146050D01*
X285750Y139700D01*
X298450Y139700D01*
X304800Y146050D01*
X304800Y158750D01*
X298450Y63500D02*
X304800Y57150D01*
X298450Y63500D02*
X285750Y63500D01*
X279400Y57150D01*
X279400Y44450D01*
X285750Y38100D01*
X298450Y38100D01*
X304800Y44450D01*
X304800Y57150D01*
X-241300Y6350D02*
X-247650Y12700D01*
X-260350Y12700D01*
X-266700Y6350D01*
X-266700Y-6350D01*
X-260350Y-12700D01*
X-247650Y-12700D01*
X-241300Y-6350D01*
X-241300Y6350D01*
X-241300Y209550D02*
X-247650Y215900D01*
X-260350Y215900D01*
X-266700Y209550D01*
X-266700Y196850D01*
X-260350Y190500D01*
X-247650Y190500D01*
X-241300Y196850D01*
X-241300Y209550D01*
X-247650Y152400D02*
X-241300Y146050D01*
X-247650Y152400D02*
X-260350Y152400D01*
X-266700Y146050D01*
X-266700Y133350D01*
X-260350Y127000D01*
X-247650Y127000D01*
X-241300Y133350D01*
X-241300Y146050D01*
X-247650Y76200D02*
X-241300Y69850D01*
X-247650Y76200D02*
X-260350Y76200D01*
X-266700Y69850D01*
X-266700Y57150D01*
X-260350Y50800D01*
X-247650Y50800D01*
X-241300Y57150D01*
X-241300Y69850D01*
X-95250Y12700D02*
X-88900Y6350D01*
X-95250Y12700D02*
X-107950Y12700D01*
X-114300Y6350D01*
X-114300Y-6350D01*
X-107950Y-12700D01*
X-95250Y-12700D01*
X-88900Y-6350D01*
X-88900Y6350D01*
X196850Y1104900D02*
X209550Y1104900D01*
X196850Y1104900D02*
X190500Y1111250D01*
X190500Y1123950D02*
X196850Y1130300D01*
X190500Y1111250D02*
X184150Y1104900D01*
X171450Y1104900D01*
X165100Y1111250D01*
X165100Y1123950D02*
X171450Y1130300D01*
X184150Y1130300D01*
X190500Y1123950D01*
X215900Y1123950D02*
X215900Y1111250D01*
X209550Y1104900D01*
X215900Y1123950D02*
X209550Y1130300D01*
X196850Y1130300D01*
X165100Y1123950D02*
X165100Y1111250D01*
X250508Y948055D02*
X260033Y948055D01*
M02*
