<?xml version="1.0" encoding="UTF-8" standalone="no"?>
<svg
   xmlns:dc="http://purl.org/dc/elements/1.1/"
   xmlns:cc="http://creativecommons.org/ns#"
   xmlns:rdf="http://www.w3.org/1999/02/22-rdf-syntax-ns#"
   xmlns:svg="http://www.w3.org/2000/svg"
   xmlns="http://www.w3.org/2000/svg"
   id="svg1461"
   version="1.1"
   viewBox="0 0 38.623478 5.5319629"
   height="5.5319629mm"
   width="38.623478mm">
  <defs
     id="defs1455" />
  <metadata
     id="metadata1458">
    <rdf:RDF>
      <cc:Work
         rdf:about="">
        <dc:format>image/svg+xml</dc:format>
        <dc:type
           rdf:resource="http://purl.org/dc/dcmitype/StillImage" />
        <dc:title></dc:title>
      </cc:Work>
    </rdf:RDF>
  </metadata>
  <g
     transform="translate(-95.593021,-99.954257)"
     id="layer1">
    <path
       id="rect1208-6"
       d="m 95.593021,99.954257 v 0.120923 5.41104 h 3.489709 0.241845 3.247345 0.24185 3.24735 0.24184 3.24735 0.24184 3.24735 0.24185 3.24734 0.24185 3.24735 0.24184 3.24735 0.24184 3.24735 0.24185 3.24734 0.24185 3.48919 v -5.531963 h -3.48919 -0.24185 -3.24734 -0.24185 -3.24735 -0.24184 -3.24735 -0.24184 -3.24735 -0.24185 -3.24734 -0.24185 -3.24735 -0.24184 -3.24735 -0.24184 -3.24735 -0.24185 -3.247345 -0.241845 z m 35.735799,0.240293 h 1.84278 c 0.19727,0.13039 0.30898,0.33008 0.33435,0.59893 v 0.23823 c -0.0297,0.33815 -0.19197,0.57747 -0.48886,0.71572 l 0.48886,0.86816 v 0.27285 h -0.62115 l -0.53227,-1.01234 h -0.33279 v 1.01234 h -0.69092 z m -35.493438,0.002 h 3.247348 v 5.04827 h -3.247348 z m 3.489193,0 h 3.247345 v 5.04827 h -3.247345 z m 3.489195,0 h 3.24735 v 5.04827 h -3.24735 z m 3.48919,0 h 3.24735 v 5.04827 h -3.24735 z m 3.48919,0 h 3.24735 v 5.04827 h -3.24735 z m 3.4892,0 h 3.24734 v 5.04827 h -3.24734 z m 3.48919,0 h 3.24735 v 5.04827 h -3.24735 z m 3.48919,0 h 3.24735 v 5.04827 h -3.24735 z m 3.48919,0 h 3.24735 v 5.04827 h -3.24735 z m 3.4892,0 h 3.24734 v 5.04827 h -3.24734 z m 4.78162,0.36174 v 0.77049 h 0.31006 c 0.33491,0 0.50229,-0.13738 0.50229,-0.41186 0,-0.13095 -0.0414,-0.22307 -0.12454,-0.27595 -0.0806,-0.0554 -0.20651,-0.0827 -0.37775,-0.0827 z m 0.41806,4.17752 c 0.16921,0 0.33486,0.0319 0.49661,0.0966 0.16423,0.0622 0.30698,0.15454 0.42891,0.27647 l -0.0791,0.10026 h -1.77509 c 0.047,-0.0809 0.10959,-0.15602 0.18966,-0.22377 0.19409,-0.16672 0.44037,-0.24959 0.73897,-0.24959 z"
       style="color:#000000;font-style:normal;font-variant:normal;font-weight:normal;font-stretch:normal;font-size:medium;line-height:normal;font-family:sans-serif;font-variant-ligatures:normal;font-variant-position:normal;font-variant-caps:normal;font-variant-numeric:normal;font-variant-alternates:normal;font-feature-settings:normal;text-indent:0;text-align:start;text-decoration:none;text-decoration-line:none;text-decoration-style:solid;text-decoration-color:#000000;letter-spacing:normal;word-spacing:normal;text-transform:none;writing-mode:lr-tb;direction:ltr;text-orientation:mixed;dominant-baseline:auto;baseline-shift:baseline;text-anchor:start;white-space:normal;shape-padding:0;clip-rule:nonzero;display:inline;overflow:visible;visibility:visible;opacity:1;isolation:auto;mix-blend-mode:normal;color-interpolation:sRGB;color-interpolation-filters:linearRGB;solid-color:#000000;solid-opacity:1;vector-effect:none;fill:#000000;fill-opacity:1;fill-rule:nonzero;stroke:none;stroke-width:0.24190943;stroke-linecap:round;stroke-linejoin:miter;stroke-miterlimit:4;stroke-dasharray:none;stroke-dashoffset:0;stroke-opacity:1;paint-order:fill markers stroke;color-rendering:auto;image-rendering:auto;shape-rendering:auto;text-rendering:auto;enable-background:accumulate" />
    <path
       d="m 96.412132,104.1147 v -2.80253 h 0.978313 q 1.044514,0 1.044514,0.69512 0,0.19492 -0.0993,0.36778 -0.0993,0.16918 -0.264806,0.23538 v 0.0184 q 0.22435,0.0589 0.360428,0.22803 0.136083,0.1655 0.136083,0.43031 0,0.41192 -0.305263,0.62156 -0.305265,0.20596 -0.790741,0.20596 z m 0.673047,-1.69182 h 0.279519 q 0.415599,0 0.415599,-0.31629 0,-0.14712 -0.102981,-0.21332 -0.0993,-0.0699 -0.312618,-0.0699 h -0.279519 z m 0,1.17692 h 0.33469 q 0.492831,0 0.492831,-0.36043 0,-0.16918 -0.121367,-0.24274 -0.121372,-0.0772 -0.371464,-0.0772 h -0.33469 z"
       style="font-style:normal;font-variant:normal;font-weight:normal;font-stretch:normal;font-size:medium;line-height:1.25;font-family:Keifont;-inkscape-font-specification:Keifont;letter-spacing:7.77999926px;word-spacing:0px;fill:#000000;fill-opacity:1;stroke:none;stroke-width:0.21727699"
       id="path1177-8" />
    <path
       d="m 100.0678,104.1147 v -2.80253 h 1.77641 v 0.55903 h -1.10335 v 0.51858 h 0.93785 v 0.56639 h -0.93785 v 0.59214 h 1.14749 v 0.56639 z"
       style="font-style:normal;font-variant:normal;font-weight:normal;font-stretch:normal;font-size:medium;line-height:1.25;font-family:Keifont;-inkscape-font-specification:Keifont;letter-spacing:7.77999926px;word-spacing:0px;fill:#000000;fill-opacity:1;stroke:none;stroke-width:0.21727699"
       id="path1179-1" />
    <path
       d="m 104.16847,102.95249 h 0.57375 l -0.0625,-0.23906 q -0.0404,-0.14711 -0.11401,-0.45605 -0.0736,-0.31262 -0.10666,-0.44503 h -0.0147 q -0.0736,0.33101 -0.217,0.90108 z m 0.8643,1.16221 -0.1655,-0.64362 h -0.82752 l -0.16183,0.64362 h -0.68408 l 0.86798,-2.80253 h 0.80545 l 0.87165,2.80253 z"
       style="font-style:normal;font-variant:normal;font-weight:normal;font-stretch:normal;font-size:medium;line-height:1.25;font-family:Keifont;-inkscape-font-specification:Keifont;letter-spacing:7.77999926px;word-spacing:0px;fill:#000000;fill-opacity:1;stroke:none;stroke-width:0.21727699"
       id="path1181-6" />
    <path
       d="m 106.84216,104.1147 v -2.80253 h 0.68408 l 0.6988,1.34242 0.27584,0.62156 h 0.0184 q -0.092,-0.74294 -0.092,-1.03716 v -0.92682 h 0.63995 v 2.80253 h -0.68408 l -0.69512,-1.35345 -0.27216,-0.61421 h -0.0184 q 0.007,0.0662 0.0331,0.30527 0.0257,0.23906 0.0368,0.41191 0.0147,0.16918 0.0147,0.31998 v 0.9305 z"
       style="font-style:normal;font-variant:normal;font-weight:normal;font-stretch:normal;font-size:medium;line-height:1.25;font-family:Keifont;-inkscape-font-specification:Keifont;letter-spacing:7.77999926px;word-spacing:0px;fill:#000000;fill-opacity:1;stroke:none;stroke-width:0.21727699"
       id="path1183-8" />
    <path
       d="m 111.64531,104.1147 q -0.56271,0 -0.94153,-0.37514 -0.37514,-0.37882 -0.37514,-1.0629 0,-0.67305 0.38985,-1.07026 0.38985,-0.39721 0.94889,-0.39721 0.49283,0 0.84958,0.36411 l -0.35307,0.43031 q -0.23906,-0.22067 -0.48548,-0.22067 -0.27952,0 -0.47077,0.23905 -0.18757,0.23539 -0.18757,0.6326 0,0.4156 0.17286,0.65098 0.17654,0.23171 0.47812,0.23171 0.29423,0 0.5333,-0.25745 l 0.35307,0.42295 q -0.35675,0.41192 -0.91211,0.41192 z"
       style="font-style:normal;font-variant:normal;font-weight:normal;font-stretch:normal;font-size:medium;line-height:1.25;font-family:Keifont;-inkscape-font-specification:Keifont;letter-spacing:7.77999926px;word-spacing:0px;fill:#000000;fill-opacity:1;stroke:none;stroke-width:0.21727699"
       id="path1185-1" />
    <path
       d="m 113.64594,102.64723 q 0,-0.67672 0.3494,-1.05555 0.3494,-0.38249 0.93418,-0.38249 0.58478,0 0.93418,0.38249 0.35307,0.37883 0.35307,1.05555 0,0.68041 -0.35307,1.07394 -0.35308,0.39353 -0.93418,0.39353 -0.5811,0 -0.93418,-0.39353 -0.3494,-0.39353 -0.3494,-1.07394 z m 1.88307,0 q 0,-0.40456 -0.16182,-0.63259 -0.16183,-0.23171 -0.43767,-0.23171 -0.27584,0 -0.43399,0.23171 -0.15815,0.22803 -0.15815,0.63259 0,0.40825 0.15815,0.65099 0.15815,0.23906 0.43399,0.23906 0.27584,0 0.43767,-0.23906 0.16182,-0.24274 0.16182,-0.65099 z"
       style="font-style:normal;font-variant:normal;font-weight:normal;font-stretch:normal;font-size:medium;line-height:1.25;font-family:Keifont;-inkscape-font-specification:Keifont;letter-spacing:7.77999926px;word-spacing:0px;fill:#000000;fill-opacity:1;stroke:none;stroke-width:0.21727699"
       id="path1187-6" />
    <path
       d="m 118.42702,104.1147 q -0.57007,0 -0.85326,-0.33101 -0.2832,-0.33468 -0.2832,-1.03716 v -1.48585 h 0.66937 v 1.55573 q 0,0.38618 0.11402,0.55536 0.11401,0.16551 0.35307,0.16551 0.23906,0 0.35675,-0.16551 0.11769,-0.16918 0.11769,-0.55536 v -1.55573 h 0.64731 v 1.48585 q 0,0.70248 -0.27952,1.03716 -0.27584,0.33101 -0.84223,0.33101 z"
       style="font-style:normal;font-variant:normal;font-weight:normal;font-stretch:normal;font-size:medium;line-height:1.25;font-family:Keifont;-inkscape-font-specification:Keifont;letter-spacing:7.77999926px;word-spacing:0px;fill:#000000;fill-opacity:1;stroke:none;stroke-width:0.21727699"
       id="path1189-8" />
    <path
       d="m 120.79543,104.1147 v -2.80253 h 0.68408 l 0.6988,1.34242 0.27584,0.62156 h 0.0184 q -0.0919,-0.74293 -0.0919,-1.03716 v -0.92682 h 0.63995 v 2.80253 h -0.68409 l -0.69511,-1.35345 -0.27217,-0.61421 h -0.0184 q 0.007,0.0662 0.0331,0.30527 0.0257,0.23906 0.0368,0.41191 0.0147,0.16919 0.0147,0.31998 v 0.9305 z"
       style="font-style:normal;font-variant:normal;font-weight:normal;font-stretch:normal;font-size:medium;line-height:1.25;font-family:Keifont;-inkscape-font-specification:Keifont;letter-spacing:7.77999926px;word-spacing:0px;fill:#000000;fill-opacity:1;stroke:none;stroke-width:0.21727699"
       id="path1191-2" />
    <path
       d="m 125.05795,104.1147 v -2.2435 h -0.75764 v -0.55903 h 2.19201 v 0.55903 H 125.731 v 2.2435 z"
       style="font-style:normal;font-variant:normal;font-weight:normal;font-stretch:normal;font-size:medium;line-height:1.25;font-family:Keifont;-inkscape-font-specification:Keifont;letter-spacing:7.77999926px;word-spacing:0px;fill:#000000;fill-opacity:1;stroke:none;stroke-width:0.21727699"
       id="path1193-3" />
    <path
       d="m 127.97437,104.1147 v -2.80253 h 1.77641 v 0.55903 h -1.10337 v 0.51858 h 0.93786 v 0.56639 h -0.93786 v 0.59214 h 1.1475 v 0.56639 z"
       style="font-style:normal;font-variant:normal;font-weight:normal;font-stretch:normal;font-size:medium;line-height:1.25;font-family:Keifont;-inkscape-font-specification:Keifont;letter-spacing:7.77999926px;word-spacing:0px;fill:#000000;fill-opacity:1;stroke:none;stroke-width:0.21727699"
       id="path1195-5" />
  </g>
</svg>
