<?xml version="1.0" encoding="UTF-8" standalone="no"?>
<svg
   xmlns:dc="http://purl.org/dc/elements/1.1/"
   xmlns:cc="http://creativecommons.org/ns#"
   xmlns:rdf="http://www.w3.org/1999/02/22-rdf-syntax-ns#"
   xmlns:svg="http://www.w3.org/2000/svg"
   xmlns="http://www.w3.org/2000/svg"
   viewBox="0 0 61.3111 9.6000004"
   height="9.6000004mm"
   width="61.3111mm"
   xml:space="preserve"
   id="svg967"
   version="1.1"><metadata
     id="metadata973"><rdf:RDF><cc:Work
         rdf:about=""><dc:format>image/svg+xml</dc:format><dc:type
           rdf:resource="http://purl.org/dc/dcmitype/StillImage" /><dc:title></dc:title></cc:Work></rdf:RDF></metadata><defs
     id="defs971" /><g
     transform="scale(1.3333333)"
     id="g975"><g
       id="g977"><path
         id="path979"
         style="fill:#000000;fill-opacity:1;fill-rule:nonzero;stroke:none"
         d="M 0,0.82 V 7.199 H 13.828 V 0.82 H 13.277 L 13.266,6.637 H 0.563 V 1.383 H 11.371 V 0.82 Z" /><path
         id="path981"
         style="fill:#000000;fill-opacity:1;fill-rule:nonzero;stroke:none"
         d="M 3.246,4.078 C 3.246,3.598 3.195,3.254 3.094,3.047 2.996,2.84 2.836,2.738 2.609,2.738 2.387,2.738 2.223,2.84 2.125,3.047 2.027,3.254 1.977,3.598 1.977,4.078 c 0,0.481 0.05,0.824 0.148,1.031 0.098,0.207 0.262,0.309 0.484,0.309 0.227,0 0.387,-0.102 0.485,-0.305 0.101,-0.207 0.152,-0.55 0.152,-1.035 m 0.461,0 c 0,0.57 -0.09,1 -0.273,1.281 C 3.254,5.637 2.98,5.777 2.609,5.777 2.238,5.777 1.965,5.641 1.785,5.359 1.605,5.078 1.512,4.652 1.512,4.078 c 0,-0.57 0.093,-1 0.273,-1.281 0.18,-0.277 0.457,-0.418 0.824,-0.418 0.371,0 0.645,0.141 0.825,0.418 0.183,0.281 0.273,0.711 0.273,1.281" /><path
         id="path983"
         style="fill:#000000;fill-opacity:1;fill-rule:nonzero;stroke:none"
         d="M 6.188,2.551 V 3 C 6.051,2.914 5.914,2.848 5.781,2.805 5.645,2.762 5.508,2.738 5.371,2.738 5.16,2.738 4.996,2.785 4.875,2.887 4.754,2.98 4.691,3.113 4.691,3.277 4.691,3.422 4.73,3.535 4.813,3.609 4.891,3.688 5.039,3.75 5.258,3.801 L 5.492,3.855 C 5.801,3.926 6.023,4.039 6.164,4.191 6.305,4.344 6.375,4.555 6.375,4.82 6.375,5.133 6.277,5.371 6.086,5.535 5.891,5.699 5.609,5.781 5.242,5.781 5.086,5.781 4.934,5.762 4.777,5.73 4.621,5.695 4.469,5.648 4.309,5.582 V 5.109 C 4.48,5.215 4.637,5.297 4.785,5.344 4.938,5.395 5.09,5.418 5.242,5.418 5.465,5.418 5.641,5.371 5.766,5.27 5.887,5.168 5.949,5.027 5.949,4.848 5.949,4.684 5.906,4.559 5.82,4.473 5.738,4.387 5.586,4.32 5.375,4.273 L 5.137,4.219 C 4.832,4.148 4.613,4.047 4.477,3.906 4.336,3.766 4.27,3.582 4.27,3.348 4.27,3.055 4.367,2.82 4.563,2.645 4.762,2.465 5.023,2.379 5.348,2.379 c 0.129,0 0.261,0.012 0.398,0.043 0.141,0.027 0.285,0.07 0.442,0.129" /><path
         id="path985"
         style="fill:#000000;fill-opacity:1;fill-rule:nonzero;stroke:none"
         d="M 6.969,2.438 H 7.414 V 3.781 H 8.629 V 2.438 H 9.074 V 5.715 H 8.629 V 4.152 H 7.414 V 5.715 H 6.969 V 2.438" /><path
         id="path987"
         style="fill:#000000;fill-opacity:1;fill-rule:nonzero;stroke:none"
         d="m 9.375,2.438 h 0.434 l 0.312,2.66 0.375,-1.762 h 0.461 L 11.336,5.102 12.398,0 h 0.434 L 11.594,5.715 H 11.172 L 10.727,3.766 10.285,5.715 H 9.863 L 9.375,2.438" /><path
         id="path989"
         style="fill:#000000;fill-opacity:1;fill-rule:nonzero;stroke:none"
         d="M 15.227,4.73 V 1.77 h 0.656 v 3.257 c 0,0.235 0.004,0.403 0.019,0.504 0.012,0.098 0.036,0.172 0.067,0.227 0.066,0.125 0.168,0.222 0.297,0.285 0.129,0.066 0.289,0.098 0.472,0.098 0.188,0 0.344,-0.032 0.473,-0.098 0.129,-0.063 0.227,-0.16 0.297,-0.285 0.035,-0.055 0.055,-0.129 0.07,-0.227 0.012,-0.101 0.02,-0.265 0.02,-0.496 V 1.77 h 0.648 v 2.96 c 0,0.493 -0.031,0.844 -0.094,1.051 -0.058,0.207 -0.164,0.375 -0.312,0.512 -0.145,0.125 -0.305,0.219 -0.488,0.281 -0.184,0.063 -0.387,0.094 -0.614,0.094 -0.226,0 -0.429,-0.031 -0.613,-0.094 C 15.941,6.512 15.781,6.418 15.637,6.293 15.488,6.16 15.383,5.988 15.32,5.777 15.258,5.566 15.227,5.215 15.227,4.73 Z" /><path
         id="path991"
         style="fill:#000000;fill-opacity:1;fill-rule:nonzero;stroke:none"
         d="m 21.977,1.934 v 0.66 C 21.781,2.469 21.582,2.371 21.383,2.309 21.184,2.242 20.984,2.211 20.781,2.211 c -0.304,0 -0.547,0.074 -0.726,0.215 -0.176,0.144 -0.266,0.336 -0.266,0.578 0,0.211 0.059,0.375 0.172,0.484 0.121,0.114 0.34,0.207 0.656,0.282 l 0.344,0.078 c 0.449,0.105 0.777,0.269 0.984,0.496 0.207,0.222 0.309,0.531 0.309,0.918 0,0.457 -0.141,0.804 -0.426,1.047 -0.281,0.238 -0.695,0.359 -1.234,0.359 -0.227,0 -0.453,-0.023 -0.68,-0.074 C 19.688,6.547 19.457,6.477 19.227,6.379 V 5.688 c 0.25,0.156 0.48,0.269 0.699,0.343 0.222,0.074 0.445,0.11 0.668,0.11 0.328,0 0.582,-0.075 0.765,-0.219 0.184,-0.149 0.274,-0.356 0.274,-0.617 0,-0.242 -0.063,-0.426 -0.192,-0.551 C 21.316,4.629 21.102,4.531 20.789,4.461 L 20.441,4.379 C 19.996,4.281 19.672,4.129 19.469,3.922 19.27,3.719 19.168,3.445 19.168,3.102 c 0,-0.43 0.145,-0.77 0.43,-1.028 0.289,-0.261 0.675,-0.39 1.152,-0.39 0.184,0 0.379,0.019 0.582,0.062 0.203,0.043 0.418,0.106 0.645,0.188 z" /><path
         id="path993"
         style="fill:#000000;fill-opacity:1;fill-rule:nonzero;stroke:none"
         d="m 24.238,4.16 c 0,-0.117 0.043,-0.219 0.125,-0.305 0.082,-0.085 0.184,-0.128 0.297,-0.128 0.121,0 0.223,0.043 0.309,0.128 0.086,0.086 0.129,0.188 0.129,0.305 0,0.121 -0.043,0.223 -0.129,0.309 -0.082,0.082 -0.184,0.125 -0.309,0.125 -0.121,0 -0.219,-0.043 -0.301,-0.121 C 24.277,4.391 24.238,4.285 24.238,4.16 Z m 0.43,-1.961 c -0.305,0 -0.531,0.164 -0.68,0.489 -0.148,0.328 -0.222,0.824 -0.222,1.492 0,0.664 0.074,1.16 0.222,1.484 0.149,0.328 0.375,0.488 0.68,0.488 0.305,0 0.531,-0.16 0.68,-0.488 C 25.496,5.34 25.57,4.844 25.57,4.18 25.57,3.512 25.496,3.016 25.348,2.688 25.199,2.363 24.973,2.199 24.668,2.199 Z m 0,-0.515 c 0.512,0 0.898,0.211 1.16,0.629 0.266,0.421 0.399,1.042 0.399,1.867 0,0.816 -0.133,1.437 -0.399,1.859 -0.262,0.418 -0.648,0.629 -1.16,0.629 -0.512,0 -0.902,-0.211 -1.164,-0.629 -0.262,-0.422 -0.391,-1.043 -0.391,-1.859 0,-0.825 0.129,-1.446 0.391,-1.867 0.262,-0.418 0.652,-0.629 1.164,-0.629 z" /><path
         id="path995"
         style="fill:#000000;fill-opacity:1;fill-rule:nonzero;stroke:none"
         d="m 28.203,4.16 c 0,-0.117 0.043,-0.219 0.125,-0.305 0.082,-0.085 0.184,-0.128 0.297,-0.128 0.121,0 0.223,0.043 0.309,0.128 0.086,0.086 0.129,0.188 0.129,0.305 0,0.121 -0.043,0.223 -0.129,0.309 -0.082,0.082 -0.184,0.125 -0.309,0.125 -0.117,0 -0.219,-0.043 -0.301,-0.121 C 28.246,4.391 28.203,4.285 28.203,4.16 Z m 0.43,-1.961 c -0.301,0 -0.528,0.164 -0.68,0.489 -0.148,0.328 -0.223,0.824 -0.223,1.492 0,0.664 0.075,1.16 0.223,1.484 0.152,0.328 0.379,0.488 0.68,0.488 0.305,0 0.531,-0.16 0.68,-0.488 0.148,-0.324 0.222,-0.82 0.222,-1.484 0,-0.668 -0.074,-1.164 -0.222,-1.492 -0.149,-0.325 -0.375,-0.489 -0.68,-0.489 z m 0,-0.515 c 0.512,0 0.898,0.211 1.16,0.629 0.266,0.421 0.398,1.042 0.398,1.867 0,0.816 -0.132,1.437 -0.398,1.859 -0.262,0.418 -0.648,0.629 -1.16,0.629 -0.512,0 -0.899,-0.211 -1.16,-0.629 -0.262,-0.422 -0.395,-1.043 -0.395,-1.859 0,-0.825 0.133,-1.446 0.395,-1.867 0.261,-0.418 0.648,-0.629 1.16,-0.629 z" /><path
         id="path997"
         style="fill:#000000;fill-opacity:1;fill-rule:nonzero;stroke:none"
         d="m 31.816,6.027 h 2.207 V 6.574 H 31.105 V 6.027 C 31.504,5.605 31.855,5.234 32.156,4.91 32.457,4.586 32.664,4.355 32.777,4.223 32.992,3.961 33.137,3.75 33.211,3.59 33.289,3.426 33.324,3.258 33.324,3.09 33.324,2.82 33.246,2.613 33.086,2.461 32.93,2.309 32.715,2.23 32.441,2.23 c -0.195,0 -0.402,0.036 -0.617,0.106 -0.215,0.07 -0.441,0.18 -0.679,0.324 V 2.004 c 0.218,-0.106 0.437,-0.188 0.648,-0.238 0.215,-0.055 0.426,-0.082 0.633,-0.082 0.472,0 0.847,0.125 1.133,0.375 0.289,0.25 0.433,0.578 0.433,0.984 0,0.203 -0.051,0.41 -0.144,0.617 -0.094,0.207 -0.25,0.434 -0.465,0.684 -0.121,0.136 -0.293,0.332 -0.524,0.578 -0.226,0.246 -0.574,0.617 -1.043,1.105 z" /><path
         id="path999"
         style="fill:#000000;fill-opacity:1;fill-rule:nonzero;stroke:none"
         d="m 36.137,4.16 c 0,-0.117 0.039,-0.219 0.121,-0.305 0.082,-0.085 0.183,-0.128 0.297,-0.128 0.121,0 0.226,0.043 0.312,0.128 0.086,0.086 0.129,0.188 0.129,0.305 0,0.121 -0.043,0.223 -0.129,0.309 -0.086,0.082 -0.187,0.125 -0.312,0.125 -0.117,0 -0.219,-0.043 -0.301,-0.121 C 36.176,4.391 36.137,4.285 36.137,4.16 Z m 0.426,-1.961 c -0.301,0 -0.528,0.164 -0.68,0.489 -0.149,0.328 -0.223,0.824 -0.223,1.492 0,0.664 0.074,1.16 0.223,1.484 0.152,0.328 0.379,0.488 0.68,0.488 0.304,0 0.531,-0.16 0.679,-0.488 0.149,-0.324 0.227,-0.82 0.227,-1.484 0,-0.668 -0.078,-1.164 -0.227,-1.492 C 37.094,2.363 36.867,2.199 36.563,2.199 Z m 0,-0.515 c 0.511,0 0.902,0.211 1.164,0.629 0.261,0.421 0.394,1.042 0.394,1.867 0,0.816 -0.133,1.437 -0.394,1.859 -0.262,0.418 -0.653,0.629 -1.164,0.629 -0.512,0 -0.899,-0.211 -1.161,-0.629 -0.261,-0.422 -0.394,-1.043 -0.394,-1.859 0,-0.825 0.133,-1.446 0.394,-1.867 0.262,-0.418 0.649,-0.629 1.161,-0.629 z" /><path
         id="path1001"
         style="fill:#000000;fill-opacity:1;fill-rule:nonzero;stroke:none"
         d="m 40.465,4.445 c 0.277,0 0.492,-0.101 0.648,-0.3 0.16,-0.2 0.239,-0.473 0.239,-0.825 0,-0.355 -0.079,-0.629 -0.239,-0.828 -0.156,-0.199 -0.371,-0.301 -0.648,-0.301 -0.289,0 -0.504,0.098 -0.652,0.289 -0.145,0.188 -0.219,0.469 -0.219,0.84 0,0.371 0.074,0.653 0.215,0.84 0.148,0.192 0.367,0.285 0.656,0.285 z m -1.16,2.032 V 5.879 c 0.136,0.078 0.281,0.141 0.429,0.184 0.153,0.039 0.313,0.058 0.477,0.058 0.414,0 0.727,-0.152 0.934,-0.461 0.214,-0.312 0.32,-0.769 0.32,-1.371 -0.102,0.211 -0.242,0.379 -0.426,0.492 -0.184,0.117 -0.391,0.172 -0.625,0.172 -0.465,0 -0.824,-0.14 -1.078,-0.426 -0.254,-0.289 -0.383,-0.691 -0.383,-1.214 0,-0.516 0.133,-0.918 0.391,-1.2 0.261,-0.285 0.629,-0.429 1.105,-0.429 0.559,0 0.969,0.199 1.227,0.601 0.262,0.403 0.39,1.031 0.39,1.895 0,0.808 -0.156,1.425 -0.468,1.851 -0.313,0.426 -0.766,0.637 -1.36,0.637 -0.156,0 -0.312,-0.016 -0.472,-0.051 -0.161,-0.031 -0.313,-0.078 -0.461,-0.14 z" /><path
         id="path1003"
         style="fill:#000000;fill-opacity:1;fill-rule:nonzero;stroke:none"
         d="m 42.957,1.77 h 3.027 v 0.277 l -1.718,4.527 h -0.68 l 1.672,-4.258 h -2.301 z" /></g></g></svg>