<?xml version="1.0" encoding="UTF-8" standalone="no"?>
<svg
   xmlns:dc="http://purl.org/dc/elements/1.1/"
   xmlns:cc="http://creativecommons.org/ns#"
   xmlns:rdf="http://www.w3.org/1999/02/22-rdf-syntax-ns#"
   xmlns:svg="http://www.w3.org/2000/svg"
   xmlns="http://www.w3.org/2000/svg"
   id="svg8"
   version="1.1"
   viewBox="0 0 8.0000811 33.052814"
   height="33.052814mm"
   width="8.0000811mm">
  <defs
     id="defs2" />
  <metadata
     id="metadata5">
    <rdf:RDF>
      <cc:Work
         rdf:about="">
        <dc:format>image/svg+xml</dc:format>
        <dc:type
           rdf:resource="http://purl.org/dc/dcmitype/StillImage" />
        <dc:title></dc:title>
      </cc:Work>
    </rdf:RDF>
  </metadata>
  <g
     transform="translate(-83.635731,-139.13636)"
     id="layer1">
    <path
       id="rect815"
       d="m 83.672189,139.17282 v 32.9799 h 2.152841 v -0.72708 h 1.445905 v 0.72708 h 4.328419 v -32.9799 h -0.950846 a 0.68115896,0.68115896 0 0 1 -0.681096,0.6811 0.68115896,0.68115896 0 0 1 -0.681611,-0.6811 z m 2.152841,1.54616 h 1.445905 v 0.74621 H 85.82503 Z m 4.142382,1.65468 a 0.68115896,0.68115896 0 0 1 0.681096,0.6811 0.68115896,0.68115896 0 0 1 -0.681096,0.68161 0.68115896,0.68115896 0 0 1 -0.681611,-0.68161 0.68115896,0.68115896 0 0 1 0.681611,-0.6811 z m -4.142382,2.18385 h 1.445905 v 0.74569 H 85.82503 Z m 4.142382,1.6986 a 0.68115896,0.68115896 0 0 1 0.681096,0.6811 0.68115896,0.68115896 0 0 1 -0.681096,0.68109 0.68115896,0.68115896 0 0 1 -0.681611,-0.68109 0.68115896,0.68115896 0 0 1 0.681611,-0.6811 z m -4.142382,2.13941 h 1.445905 v 0.7462 H 85.82503 Z m 4.142382,1.74253 a 0.68115896,0.68115896 0 0 1 0.681096,0.68109 0.68115896,0.68115896 0 0 1 -0.681096,0.6811 0.68115896,0.68115896 0 0 1 -0.681611,-0.6811 0.68115896,0.68115896 0 0 1 0.681611,-0.68109 z m -4.142382,2.09599 h 1.445905 v 0.74621 H 85.82503 Z m 4.142382,1.78594 a 0.68115896,0.68115896 0 0 1 0.681096,0.68109 0.68115896,0.68115896 0 0 1 -0.681096,0.6811 0.68115896,0.68115896 0 0 1 -0.681611,-0.6811 0.68115896,0.68115896 0 0 1 0.681611,-0.68109 z m -4.142382,2.05259 h 1.445905 v 0.74569 H 85.82503 Z m 4.142382,1.82986 a 0.68115896,0.68115896 0 0 1 0.681096,0.6811 0.68115896,0.68115896 0 0 1 -0.681096,0.68109 0.68115896,0.68115896 0 0 1 -0.681611,-0.68109 0.68115896,0.68115896 0 0 1 0.681611,-0.6811 z m -4.142382,2.00815 h 1.445905 v 0.7462 H 85.82503 Z m 4.142382,1.87378 a 0.68115896,0.68115896 0 0 1 0.681096,0.6811 0.68115896,0.68115896 0 0 1 -0.681096,0.6811 0.68115896,0.68115896 0 0 1 -0.681611,-0.6811 0.68115896,0.68115896 0 0 1 0.681611,-0.6811 z m -4.142382,1.96474 h 1.445905 v 0.74569 H 85.82503 Z m 4.142382,1.9172 a 0.68115896,0.68115896 0 0 1 0.681096,0.68109 0.68115896,0.68115896 0 0 1 -0.681096,0.6811 0.68115896,0.68115896 0 0 1 -0.681611,-0.6811 0.68115896,0.68115896 0 0 1 0.681611,-0.68109 z m -4.142382,1.92133 h 1.445905 v 0.74569 H 85.82503 Z m 4.142382,1.9606 a 0.68115896,0.68115896 0 0 1 0.681096,0.68161 0.68115896,0.68115896 0 0 1 -0.681096,0.6811 0.68115896,0.68115896 0 0 1 -0.681611,-0.6811 0.68115896,0.68115896 0 0 1 0.681611,-0.68161 z"
       style="fill:none;fill-opacity:1;stroke:#000000;stroke-width:0.07291626;stroke-linecap:round;stroke-linejoin:miter;stroke-miterlimit:4;stroke-dasharray:none;stroke-opacity:1;paint-order:fill markers stroke" />
  </g>
</svg>
